<svg width="468" height="305" viewBox="0 0 468 305" fill="none" xmlns="http://www.w3.org/2000/svg">
<path d="M243.206 304.968C342.213 304.968 422.474 286.376 422.474 263.441C422.474 240.507 342.213 221.915 243.206 221.915C144.199 221.915 63.9385 240.507 63.9385 263.441C63.9385 286.376 144.199 304.968 243.206 304.968Z" fill="#2A4B79"/>
<path d="M364.152 208.66C351.651 213.32 356.628 232.527 341.394 231.037C328.509 229.768 327.295 228.774 323.51 232.978C322.211 234.419 321.15 236.053 320.307 237.798C319.295 239.891 317.215 243.058 313.535 244.268C291.042 251.656 254.536 222.128 275.889 199.85C277.431 198.241 279.886 197.353 282.625 196.508C297.482 191.938 303.228 198.222 312.606 178.593C321.986 158.958 341.962 182.266 352.024 179.888C362.086 177.508 370.627 173.153 380.135 182.794C389.644 192.443 376.656 204.01 364.152 208.66Z" fill="#CCD39C"/>
<path d="M286.84 223.594L286.25 222.944C286.536 222.685 315.699 196.845 382.406 185.593L382.552 186.458C316.097 197.667 287.126 223.336 286.84 223.594Z" fill="#C2C68E"/>
<path d="M324.74 191.745C314.759 185.085 312.291 179.007 312.193 178.752L313.01 178.432C313.032 178.492 315.504 184.525 325.229 191.016L324.74 191.745Z" fill="#C2C68E"/>
<path d="M327.626 200.884C324.512 196.876 323.836 190.548 325.665 182.586C327.035 176.624 329.353 171.767 329.376 171.72L330.166 172.098C330.075 172.288 321.159 191.131 328.318 200.346L327.626 200.884Z" fill="#C2C68E"/>
<path d="M84.584 109.591C82.0026 111.551 80.6134 111.301 79.8458 110.271C79.0801 109.243 79.2261 107.824 81.8093 105.863C86.5134 102.292 90.1732 102.428 90.1732 102.428C90.1732 102.428 89.3564 105.969 84.584 109.591Z" fill="#ACC9C5"/>
<path d="M91.9927 185.779L91.3805 185.794C91.3786 185.699 91.0355 176.079 86.2499 162.467C81.8339 149.91 72.6209 131.288 53.814 113.893L54.2252 113.437C73.1364 130.926 82.3968 149.656 86.8356 162.289C91.6477 175.984 91.9889 185.682 91.9927 185.779Z" fill="#ACC9C5"/>
<path d="M73.3637 135.915L72.8122 135.641C82.5464 115.449 72.7023 93.3702 72.6018 93.1486L73.159 92.8911C73.2614 93.1145 83.2268 115.457 73.3637 135.915Z" fill="#ACC9C5"/>
<path d="M63.0364 126.944C56.8521 127.639 51.8163 125.03 51.7576 125L52.0381 124.451C52.1025 124.485 58.556 127.819 65.7258 125.787L65.8945 126.384C64.926 126.66 63.967 126.84 63.0364 126.944Z" fill="#ACC9C5"/>
<path d="M53.0065 110.502C56.5697 113.081 57.034 114.694 56.2986 115.737C55.5652 116.78 53.9087 116.858 50.3474 114.279C43.858 109.58 42.0518 105.42 42.0518 105.42C42.0518 105.42 46.4223 105.734 53.0065 110.502Z" fill="#ACC9C5"/>
<path d="M53.1582 122.824C57.3164 124.203 58.2394 125.602 57.8509 126.821C57.4624 128.042 55.912 128.622 51.7537 127.243C44.1783 124.733 41.2197 121.311 41.2197 121.311C41.2197 121.311 45.4728 120.278 53.1582 122.824Z" fill="#ACC9C5"/>
<path d="M68.1215 116.426C69.2227 119.515 68.584 120.781 67.3899 121.211C66.1959 121.641 64.9014 121.069 63.7983 117.981C61.7912 112.356 62.9815 108.858 62.9815 108.858C62.9815 108.858 66.086 110.718 68.1215 116.426Z" fill="#ACC9C5"/>
<path d="M74.1522 90.2517C75.659 94.4096 75.1416 95.9982 73.9494 96.4337C72.7573 96.8692 71.3434 95.985 69.8366 91.827C67.0923 84.2533 67.9224 79.8057 67.9224 79.8057C67.9224 79.8057 71.368 82.5682 74.1522 90.2517Z" fill="#ACC9C5"/>
<path d="M159.173 188.499C159.173 188.499 109.033 106.715 87.5272 121.313C66.0214 135.912 133.173 168.584 147.02 192.86L159.173 188.499Z" fill="#ACC9C5"/>
<path d="M135.81 189.52C135.81 189.52 69.9218 120.253 47.6673 140.376C25.4128 160.501 104.361 176.168 122.762 196.991L135.81 189.52Z" fill="#92BCB5"/>
<path d="M128.547 193.765C116.099 179.15 97.6915 167.721 84.4415 160.706C70.0771 153.102 58.5178 148.908 58.4041 148.866L58.6618 148.141C58.7774 148.183 70.3861 152.396 84.7979 160.024C98.1066 167.07 116.601 178.555 129.127 193.263L128.547 193.765Z" fill="#68A1BF"/>
<path d="M162.382 229.017C154.592 245.897 140.114 250.085 128.689 249.612C114.291 249.752 107.795 243.607 105.447 240.527C104.228 238.927 102.834 237.467 101.26 236.227C96.4843 232.459 95.3851 233.748 82.0157 237.526C70.6724 240.724 68.3431 230.603 62.7387 223.664C62.6382 223.537 62.534 223.412 62.4298 223.287C60.2786 220.725 57.6309 218.656 53.8403 217.95C49.8204 217.204 45.6546 215.865 41.9474 214.047C41.6403 213.898 41.3352 213.744 41.0319 213.585C33.6593 209.738 28.3866 203.963 30.2951 197.262C30.3387 197.103 30.388 196.944 30.4411 196.787C30.8126 195.674 31.383 194.534 32.1753 193.375C40.4349 181.304 50.2601 184.341 61.3267 184.985C67.4466 185.339 75.3101 176.753 83.4106 172.243C83.5262 172.178 83.6437 172.114 83.7593 172.051C90.1976 168.564 96.7724 167.765 102.718 176.183C102.718 176.185 102.72 176.185 102.72 176.187C102.841 176.357 102.961 176.527 103.08 176.692C116.341 195.215 121.309 187.587 137.697 189.647C140.745 190.031 143.503 190.518 145.43 191.944C163.394 205.228 177.936 217.35 162.382 229.017Z" fill="#CCD39C"/>
<path d="M138.256 219.317L138.759 218.514C138.408 218.291 102.828 196.227 30.2932 196.785L30.2989 197.736C102.561 197.177 137.906 219.095 138.256 219.317Z" fill="#C2C68E"/>
<path d="M92.3354 192.487C101.643 183.507 103.125 176.562 103.184 176.27L102.261 176.083C102.248 176.151 100.754 183.05 91.6853 191.802L92.3354 192.487Z" fill="#C2C68E"/>
<path d="M90.9765 202.778C93.5237 197.917 93.0689 191.042 89.6611 182.897C87.1101 176.796 83.7649 172.055 83.7308 172.008L82.9651 172.561C83.0959 172.746 95.999 191.16 90.1425 202.337L90.9765 202.778Z" fill="#C2C68E"/>
<path d="M71.8532 201.725C72.9639 200.729 73.559 200.085 73.5874 200.055L72.8956 199.413C72.7705 199.549 60.1877 213.093 41.0339 213.11V214.059C56.4654 214.044 67.7177 205.436 71.8532 201.725Z" fill="#C2C68E"/>
<path d="M63.0913 223.963C67.3159 218.91 68.419 213.958 68.599 210.696C68.7961 207.144 67.9944 204.811 67.9603 204.713L67.0733 205.031C67.1036 205.12 70.1058 214.102 62.3711 223.354L63.0913 223.963Z" fill="#C2C68E"/>
<path d="M57.0529 176.518C53.8385 176.111 53.0159 174.956 53.1789 173.684C53.3419 172.411 54.4317 171.5 57.6461 171.907C63.5006 172.65 66.0346 175.316 66.0346 175.316C66.0346 175.316 62.9946 177.272 57.0529 176.518Z" fill="#ACC9C5"/>
<path d="M299.256 258.378H124.191C121.695 258.378 119.487 256.759 118.739 254.379L83.3954 141.95C81.5418 136.054 85.9502 130.055 92.1364 130.055H251.458C255.897 130.055 259.82 132.933 261.151 137.163L299.256 258.378Z" fill="#764678"/>
<path d="M292.256 255.718H127.127L91.5185 142.444C90.7491 139.997 92.578 137.51 95.1442 137.51H250.882C253.39 137.51 255.607 139.136 256.359 141.525L292.256 255.718Z" fill="#73B3CE"/>
<path d="M128.105 258.378H384.718V250.043H122.893L128.105 258.378Z" fill="#764678"/>
<path d="M247.493 258.378H394.6C396.014 258.378 397.158 256.918 397.158 255.116V253.304C397.158 251.503 396.012 250.041 394.6 250.041H247.857C246.688 250.041 245.668 251.05 245.378 252.493L245.014 254.305C244.599 256.371 245.822 258.378 247.493 258.378Z" fill="#5A335D"/>
<path d="M146.829 158.36C146.829 158.36 146.279 161.946 144.814 163.773C143.849 164.977 141.187 167.365 143.08 168.16C144.592 168.795 147.505 165.968 148.449 165.265C149.395 164.561 150.82 163.23 150.504 162.096C149.848 159.746 150.064 156.79 150.064 156.79L146.829 158.36Z" fill="#331832"/>
<path d="M157.424 155.578C157.424 155.578 158.155 159.132 157.42 161.355C156.935 162.821 155.269 165.983 157.321 166.07C158.961 166.14 160.706 162.478 161.349 161.49C161.991 160.501 162.863 158.757 162.173 157.805C160.74 155.828 159.916 152.984 159.916 152.984L157.424 155.578Z" fill="#331832"/>
<path d="M156.398 158.089C136.767 145.008 137.737 133.547 140.457 129.065C143.616 123.86 148.62 119.744 156.286 117.909C158.33 117.418 160.276 117.136 161.902 116.974C164.256 116.737 166.284 118.615 166.222 120.978L166.045 127.652H166.06C162.785 127.584 152.848 128.582 150.244 133.872C149.702 134.972 162.918 150.478 162.423 153.259C161.866 156.408 158.318 159.369 156.398 158.089Z" fill="#366F90"/>
<path d="M148.787 160.049C146.529 160.06 144.729 158.165 144.862 155.914C145.157 150.907 146.088 142.389 149.007 135.953C150.661 132.303 153.292 128.983 156.827 126.088C159.491 123.905 162.681 121.953 166.305 120.289C172.334 117.519 176.676 117.905 176.676 117.905L179.97 122.76C179.926 122.769 180.895 127.656 173.928 132.015C170.084 134.42 162.359 135.889 159.181 142.103C156.912 146.539 156.044 152.422 155.756 156.533C155.617 158.498 153.984 160.024 152.011 160.034L148.787 160.049Z" fill="#366F90"/>
<path d="M153.269 100.701C153.269 100.701 149.221 106.925 147.769 116.15C146.81 122.254 157.93 115.148 157.93 115.148L158.424 102.396L153.269 100.701Z" fill="#FFB27D"/>
<path d="M173.511 97.1835C173.511 97.1835 170.427 91.9179 163.318 93.533C156.209 95.1499 153.313 102.404 152.803 119.823C152.803 119.823 157.073 127.37 176.494 125.899C178.645 125.736 181.729 125.452 180.679 121.966C178.723 115.487 176.83 102.563 173.511 97.1835Z" fill="#6DA49A"/>
<path d="M181.331 98.7209L174.019 100.094C174.019 100.094 161.231 103.871 157.651 103.901C154.071 103.932 152.591 101.315 152.591 101.315C152.591 101.315 155.477 96.4184 161.529 94.1085C162.097 93.8907 162.692 93.6976 163.318 93.531C164.366 93.2545 165.431 93.0103 166.498 92.9989C178.567 92.8626 181.331 98.7209 181.331 98.7209Z" fill="#6DA49A"/>
<path d="M181.331 98.7209C181.488 99.2965 179.957 100.258 177.908 100.868C175.859 101.478 174.07 101.504 173.911 100.929C173.753 100.353 175.285 99.3912 177.334 98.7815C179.384 98.1718 181.174 98.1453 181.331 98.7209Z" fill="#331832"/>
<path d="M180.068 114.944C176.945 119.832 170.759 122.953 164.256 122.748L164.95 117.538C169.991 116.619 173.856 113.342 174.576 110.579C175.48 107.109 175.171 103.725 174.737 101.184C174.695 100.944 174.792 100.701 174.985 100.552C175.63 100.058 177.299 99.0559 180.285 98.9972C180.55 98.9915 180.785 99.1695 180.853 99.427C182.102 104.125 182.855 110.581 180.068 114.944Z" fill="#FFB27D"/>
<path d="M176.778 116.489C176.672 116.489 176.568 116.468 176.471 116.426C175.954 116.205 175.774 115.451 176.073 114.745C176.246 114.338 176.551 114.014 176.892 113.876C177.123 113.783 177.351 113.779 177.553 113.866C178.071 114.088 178.251 114.841 177.951 115.548C177.779 115.955 177.474 116.279 177.131 116.417C177.013 116.466 176.894 116.489 176.778 116.489ZM177.246 113.931C177.148 113.931 177.043 113.951 176.939 113.993C176.628 114.118 176.348 114.419 176.189 114.794C175.918 115.436 176.066 116.118 176.52 116.311C176.691 116.385 176.886 116.381 177.085 116.299C177.396 116.174 177.677 115.873 177.836 115.498C178.107 114.857 177.959 114.175 177.504 113.982C177.423 113.948 177.337 113.931 177.246 113.931Z" fill="#E9845C"/>
<path d="M164.95 117.54C164.95 117.54 160.28 116.055 158.796 116.758C157.312 117.46 155.947 119.477 156.959 119.236C157.971 118.996 159.181 118.333 159.181 118.333C159.181 118.333 156.664 119.872 157.28 120.304C157.896 120.736 160.07 119.376 160.07 119.376C160.07 119.376 157.221 121.446 157.935 121.665C158.648 121.885 160.801 120.298 160.801 120.298C160.801 120.298 158.227 122.33 159.063 122.567C159.897 122.803 161.178 120.874 161.794 121.306C162.408 121.737 163.978 123.722 165.39 122.16L164.95 117.54Z" fill="#FFB27D"/>
<path d="M159.22 118.38L159.143 118.288C159.171 118.265 159.823 117.723 160.342 117.871L160.31 117.988C159.851 117.858 159.226 118.375 159.22 118.38Z" fill="#E9845C"/>
<path d="M160.109 119.422L160.03 119.331C160.056 119.308 160.68 118.774 161.44 118.833L161.43 118.954C160.718 118.899 160.115 119.416 160.109 119.422Z" fill="#E9845C"/>
<path d="M160.841 120.346L160.763 120.253C160.795 120.226 161.567 119.584 162.107 119.789L162.063 119.903C161.59 119.723 160.847 120.338 160.841 120.346Z" fill="#E9845C"/>
<path d="M159.214 124.797H144.225C143.91 124.797 143.631 124.598 143.533 124.303L140.417 115.01C140.26 114.542 140.612 114.059 141.109 114.059H155.524C156.182 114.059 156.764 114.476 156.972 115.095L159.906 123.848C160.062 124.314 159.711 124.797 159.214 124.797Z" fill="#331832"/>
<path d="M158.273 124.797H143.283C142.968 124.797 142.69 124.599 142.591 124.303L139.475 115.01C139.318 114.543 139.67 114.06 140.167 114.06H154.582C155.24 114.06 155.822 114.476 156.03 115.096L158.964 123.849C159.122 124.315 158.769 124.797 158.273 124.797Z" fill="#331832"/>
<path d="M147.771 119.123C147.771 118.77 148.178 118.626 148.535 118.626C148.891 118.626 149.471 119.015 149.467 119.509C149.463 120.043 149.046 120.111 148.69 120.111C148.334 120.111 147.771 119.571 147.771 119.123Z" fill="#DAEBE8"/>
<path d="M163.784 123.483H143.277V124.797H164.213C164.457 124.797 164.656 124.598 164.656 124.354C164.656 123.873 164.266 123.483 163.784 123.483Z" fill="#331832"/>
<path d="M157.207 118.755C157.2 118.727 156.465 115.972 155.989 115.116C155.521 114.275 154.941 114.105 154.935 114.103L154.962 114.008C154.986 114.016 155.585 114.188 156.074 115.067C156.556 115.934 157.272 118.615 157.302 118.729L157.207 118.755Z" fill="#366F90"/>
<path d="M159.423 123.532C158.868 123.532 158.729 123.286 158.724 123.277L157.552 119.783L157.645 119.753L158.813 123.239C158.815 123.239 158.94 123.436 159.423 123.436V123.532Z" fill="#366F90"/>
<path d="M145.606 149.01L145.485 149.003C145.489 148.957 145.802 144.477 147.187 139.412C148.468 134.732 150.953 128.58 155.521 125.848L155.583 125.952C151.052 128.662 148.58 134.785 147.305 139.445C145.921 144.498 145.61 148.965 145.606 149.01Z" fill="#020202"/>
<path d="M155.612 157.517H155.49C155.54 150.548 157.822 145.167 157.844 145.114L157.956 145.161C157.935 145.214 155.661 150.574 155.612 157.517Z" fill="#020202"/>
<path d="M159.575 92.0938C159.531 92.0844 158.504 91.878 158.172 91.1604C157.998 90.7817 158.053 90.3367 158.335 89.8331C158.462 89.6097 158.578 89.4071 158.684 89.2215C159.425 87.9321 159.675 87.4966 159.429 86.5215L159.518 86.4988C159.772 87.5118 159.497 87.9889 158.763 89.267C158.657 89.4525 158.54 89.6551 158.415 89.8785C158.147 90.3538 158.092 90.7722 158.254 91.1225C158.564 91.7966 159.58 92.003 159.59 92.0049L159.575 92.0938Z" fill="#EF8062"/>
<path d="M159.476 86.5083C159.476 86.5083 159.887 88.0761 158.904 89.7707C157.92 91.4653 159.108 92.6316 160.503 91.9387C161.898 91.2475 162.51 93.0349 164.286 91.9633C166.064 90.8935 159.476 86.5083 159.476 86.5083Z" fill="#EF8062"/>
<path d="M166.305 91.9255L165.245 89.7102L164.936 89.0626L163.117 85.2568L163.562 89.2576L163.831 91.6585L163.907 92.342C164.004 93.1713 162.8 93.6788 162.8 93.6788C162.522 94.173 162.389 95.025 163.631 95.3677C165.088 95.7691 167.482 94.4002 168.265 93.0255C168.263 93.0255 166.646 92.6412 166.305 91.9255Z" fill="#FFB27D"/>
<path d="M165.247 89.6439C165.247 89.6667 165.247 89.6875 165.245 89.7102C165.2 91.0072 163.839 91.6661 163.839 91.6661L163.83 91.6585L163.561 89.2577C163.978 89.0854 164.575 88.9036 164.935 89.0627C165.124 89.146 165.247 89.3239 165.247 89.6439Z" fill="#331832"/>
<path d="M163.134 90.554C165.218 90.4726 166.825 88.3246 166.725 85.7563C166.624 83.188 164.853 81.172 162.77 81.2534C160.687 81.3349 159.079 83.4829 159.18 86.0512C159.28 88.6195 161.051 90.6355 163.134 90.554Z" fill="#FFB27D"/>
<path d="M166.254 86.4799C165.842 86.9041 165.245 86.9703 164.923 86.6257C164.599 86.2811 164.671 85.6582 165.082 85.2341C165.494 84.8099 166.091 84.7437 166.413 85.0883C166.737 85.431 166.667 86.0539 166.254 86.4799Z" fill="#FFB27D"/>
<path d="M161.045 88.9943C161.045 88.9943 162.336 88.9734 163.606 88.4717C163.606 88.4717 163.763 89.7365 162.37 89.8766C161.561 89.9561 161.045 88.9943 161.045 88.9943Z" fill="#E9633E"/>
<path d="M161.045 88.9944C161.045 88.9944 161.368 89.2406 162.095 89.2084C162.823 89.1762 163.608 88.47 163.608 88.47C163.608 88.47 162.069 88.9585 161.045 88.9944Z" fill="white"/>
<path d="M162.596 85.9649C162.571 85.9593 162.548 85.9422 162.537 85.9157C162.518 85.8722 162.537 85.821 162.581 85.8021C162.605 85.7907 163.172 85.4708 163.701 86.0066C163.735 86.0407 163.735 86.0937 163.703 86.1278C163.67 86.1618 163.621 86.1543 163.581 86.1297C163.178 85.8797 162.672 85.9498 162.651 85.9593C162.632 85.9668 162.613 85.9687 162.596 85.9649Z" fill="#080435"/>
<path d="M163.312 86.8795C163.327 87.084 163.217 87.2582 163.07 87.2677C162.922 87.279 162.789 87.1219 162.774 86.9174C162.759 86.7129 162.869 86.5387 163.016 86.5292C163.164 86.5197 163.297 86.6769 163.312 86.8795Z" fill="#080435"/>
<path d="M159.55 86.5309C159.523 86.5347 159.497 86.5272 159.476 86.5082C159.442 86.476 159.44 86.4211 159.472 86.387C159.491 86.3662 159.893 85.8569 160.587 86.1485C160.63 86.1674 160.653 86.2166 160.634 86.2602C160.617 86.3037 160.57 86.3151 160.522 86.3075C160.054 86.2318 159.612 86.4874 159.597 86.5044C159.584 86.5196 159.567 86.5291 159.55 86.5309Z" fill="#080435"/>
<path d="M160.56 87.1048C160.651 87.2885 160.617 87.4911 160.484 87.5573C160.352 87.6236 160.17 87.5289 160.079 87.3453C159.988 87.1616 160.022 86.959 160.155 86.8928C160.287 86.8265 160.469 86.9231 160.56 87.1048Z" fill="#080435"/>
<path d="M161.206 82.161C161.206 82.161 161.35 83.7704 163.378 83.9673C165.406 84.1642 166.83 84.9614 166.617 86.4231C166.403 87.8848 163.27 91.0241 165.706 92.0958C168.141 93.1694 167.548 91.0146 170.158 91.4161C172.768 91.8194 173.099 88.3449 171.238 86.4098C169.375 84.4748 169.891 79.1391 163.212 79.6352C156.533 80.1313 159.192 85.3666 159.192 85.3666C159.192 85.3666 161.28 83.9427 161.206 82.161Z" fill="#EF8062"/>
<path d="M166.405 92.3684C165.894 92.1847 165.573 91.895 165.45 91.505C165.115 90.4333 166.312 88.7501 167.37 87.2656C167.649 86.8737 167.91 86.5045 168.143 86.1542C168.788 85.1772 168.803 84.0866 168.187 83.2383C167.51 82.3067 166.276 81.9508 164.969 82.3068C162.471 82.9903 161.352 81.5058 161.341 81.4907L161.385 81.4585C161.396 81.4736 162.493 82.9259 164.953 82.2537C166.284 81.8902 167.541 82.2537 168.23 83.2061C168.852 84.0619 168.837 85.2037 168.189 86.1845C167.956 86.5366 167.694 86.9059 167.415 87.2978C166.365 88.7728 165.175 90.4447 165.503 91.4898C165.623 91.8666 165.922 92.1374 166.424 92.3173L166.405 92.3684Z" fill="white"/>
<path d="M159.525 89.5113C158.951 89.3258 158.428 88.7199 158.129 87.8905C157.64 86.5405 157.886 85.0088 158.678 84.4748C158.972 84.2722 159.311 84.2287 159.654 84.3404C160.229 84.5259 160.752 85.1318 161.051 85.9593C161.54 87.3074 161.294 88.841 160.501 89.3769C160.323 89.4981 160.13 89.5605 159.931 89.57C159.798 89.5738 159.662 89.5549 159.525 89.5113ZM160.894 86.018C160.611 85.2379 160.128 84.6717 159.603 84.4994C159.307 84.4067 159.021 84.4445 158.773 84.6111C158.039 85.1053 157.823 86.5519 158.288 87.8318C158.57 88.61 159.053 89.1781 159.578 89.3504C159.872 89.4413 160.16 89.4053 160.407 89.2387C161.14 88.7426 161.358 87.296 160.894 86.018Z" fill="#764678"/>
<g opacity="0.3">
<path opacity="0.3" d="M163.917 88.2684C164.865 88.2183 165.574 87.0467 165.5 85.6516C165.426 84.2565 164.598 83.1661 163.65 83.2162C162.702 83.2663 161.993 84.4378 162.067 85.833C162.141 87.2281 162.969 88.3184 163.917 88.2684Z" fill="white"/>
</g>
<g opacity="0.3">
<path opacity="0.3" d="M161.091 86.0691C161.447 87.3907 161.099 88.8524 160.316 89.3353C159.531 89.8162 158.606 89.1365 158.252 87.813C157.896 86.4913 158.244 85.0296 159.027 84.5468C159.81 84.064 160.737 84.7475 161.091 86.0691Z" fill="white"/>
</g>
<path d="M163.17 88.1935C162.579 87.9341 162.11 87.3169 161.887 86.4989C161.502 85.094 161.98 83.5414 162.952 83.0358C163.344 82.8332 163.767 82.82 164.178 82.998C164.768 83.2574 165.234 83.8746 165.458 84.6907C165.844 86.0975 165.367 87.652 164.392 88.1538C164.199 88.256 163.998 88.3109 163.795 88.3185C163.589 88.3261 163.378 88.2825 163.17 88.1935ZM163.03 83.1835C162.124 83.6531 161.686 85.1205 162.05 86.4535C162.258 87.2127 162.704 87.8073 163.24 88.0402C163.6 88.1916 163.974 88.1784 164.318 88.0061C165.224 87.5365 165.664 86.0691 165.298 84.7361C165.092 83.9788 164.648 83.388 164.112 83.1513C163.928 83.0718 163.742 83.0339 163.557 83.0415C163.377 83.0491 163.2 83.0964 163.03 83.1835Z" fill="#764678"/>
<path d="M160.934 86.5727C160.97 86.5708 161.004 86.5576 161.032 86.533C161.049 86.5178 161.443 86.1846 162.148 86.2906C162.232 86.3001 162.315 86.2452 162.328 86.16C162.342 86.0748 162.283 85.9933 162.198 85.9839C161.345 85.84 160.844 86.2811 160.822 86.3001C160.759 86.3588 160.753 86.4572 160.81 86.5216C160.843 86.5576 160.888 86.5746 160.934 86.5727Z" fill="#764678"/>
<path d="M183.387 243.087C179.919 244.285 176.134 242.449 174.932 238.984L161.123 199.152C159.921 195.685 161.76 191.902 165.23 190.703C168.699 189.505 172.483 191.341 173.685 194.806L187.494 234.638C188.696 238.103 186.857 241.886 183.387 243.087Z" fill="#366F90"/>
<path d="M172.637 162.76C172.637 162.76 216.479 126.683 231.524 79.9343L289.76 225.51C289.76 225.51 222.474 193.892 184.873 194.276C184.873 194.276 173.596 191.052 170.431 180.827C167.019 169.807 172.637 162.76 172.637 162.76Z" fill="#EC1C24"/>
<path d="M302.877 226.545C319.749 220.005 319.654 179.24 302.664 135.493C285.675 91.7456 258.225 61.5825 241.353 68.1218C224.482 74.661 224.577 115.426 241.566 159.174C258.555 202.921 286.005 233.084 302.877 226.545Z" fill="#366F90"/>
<path d="M296.881 221.594C290.467 221.594 282.516 216.317 274.018 206.307C263.825 194.299 254.021 176.891 246.409 157.29C238.8 137.687 234.291 118.231 233.716 102.502C233.136 86.6615 236.631 76.4616 243.555 73.7824C250.478 71.1033 259.943 76.2874 270.21 88.3807C280.403 100.389 290.207 117.797 297.819 137.398C305.429 157 309.937 176.457 310.512 192.186C311.09 208.026 307.597 218.226 300.673 220.905C299.481 221.367 298.213 221.594 296.881 221.594ZM247.345 73.7313C246.089 73.7313 244.901 73.9472 243.786 74.3789C240.45 75.6702 237.939 78.8265 236.321 83.7646C234.74 88.589 234.078 94.8865 234.357 102.479C234.929 118.14 239.421 137.523 247.006 157.059C254.591 176.595 264.358 193.939 274.505 205.894C279.425 211.692 284.165 215.899 288.589 218.398C293.117 220.956 297.104 221.6 300.44 220.309C303.776 219.017 306.287 215.861 307.906 210.923C309.486 206.099 310.148 199.801 309.869 192.208C309.297 176.548 304.805 157.165 297.22 137.629C289.635 118.092 279.869 100.749 269.721 88.7935C264.801 82.9958 260.061 78.7887 255.637 76.2893C252.624 74.5872 249.847 73.7313 247.345 73.7313Z" fill="#331832"/>
<path d="M250.575 136.065L278.578 133.482C282.168 133.079 285.579 135.139 286.885 138.502L289.067 144.119C290.615 148.109 289.26 152.642 285.771 155.13L262.136 171.992C262.136 171.992 244.954 157.854 250.575 136.065Z" fill="#EC1C24"/>
<path d="M285.651 155.408C285.589 155.381 279.366 152.67 276.677 144.899C275.263 140.817 275.792 137.877 276.485 136.129C277.244 134.217 278.339 133.287 278.385 133.249L278.775 133.713C278.765 133.723 277.734 134.603 277.037 136.385C276.393 138.032 275.906 140.812 277.251 144.699C279.853 152.218 285.829 154.823 285.89 154.848L285.651 155.408Z" fill="#331832"/>
<path d="M172.637 162.76L152.856 174.363C148.773 176.756 147.032 181.751 148.743 186.157L151.832 194.113C153.608 198.686 158.54 201.198 163.291 199.949L184.873 194.278C184.873 194.278 177.855 192.57 173.427 180.446C169.993 171.038 172.637 162.76 172.637 162.76Z" fill="#EC1C24"/>
<path d="M184.873 194.581C184.805 194.581 184.736 194.558 184.68 194.511C177.034 188.181 174.085 179.877 172.957 174.022C171.737 167.687 172.33 162.769 172.337 162.722C172.358 162.556 172.51 162.438 172.677 162.459C172.844 162.48 172.961 162.631 172.94 162.798C172.935 162.845 172.353 167.683 173.558 173.929C174.669 179.68 177.567 187.835 185.068 194.045C185.197 194.151 185.214 194.342 185.108 194.471C185.047 194.543 184.96 194.581 184.873 194.581Z" fill="#331832"/>
<path d="M207.573 197.237C207.503 197.237 207.433 197.213 207.374 197.164C201.006 191.656 195.977 185.682 192.429 179.409C189.588 174.384 187.684 169.158 186.77 163.875C185.212 154.866 187.111 148.718 187.13 148.656C187.181 148.497 187.352 148.408 187.511 148.459C187.67 148.51 187.759 148.681 187.708 148.84C187.689 148.9 185.832 154.935 187.373 163.809C188.279 169.02 190.161 174.175 192.968 179.134C196.48 185.339 201.46 191.25 207.768 196.707C207.895 196.817 207.908 197.008 207.798 197.135C207.741 197.203 207.658 197.237 207.573 197.237Z" fill="#331832"/>
<path d="M205.753 234.761C205.2 235.746 199.647 244.34 200.809 252.747L206.855 250.564L209.618 239.232L205.753 234.761Z" fill="#FFB27D"/>
<path d="M229.894 231.24C229.894 231.24 226.179 224.584 217.138 226.425C208.098 228.265 203.163 241.193 205.615 266.798C205.615 266.798 219.978 261.093 238.656 265.692C238.656 265.692 235.581 240.894 229.894 231.24Z" fill="#CCD39C"/>
<path d="M236.791 228.551L230.436 234.888C230.436 234.888 214.144 239.287 209.618 239.234C205.092 239.181 203.312 235.877 203.312 235.877C203.312 235.877 207.131 229.835 214.86 227.101C215.586 226.843 216.346 226.616 217.14 226.425C218.475 226.105 219.832 225.921 221.177 225.84C229.175 225.364 236.791 228.551 236.791 228.551Z" fill="#CCD39C"/>
<path d="M236.789 228.551C237.805 229.655 236.237 230.859 234.482 232.609C232.727 234.358 230.915 235.379 230.434 234.888C229.952 234.398 230.985 232.58 232.74 230.831C234.495 229.079 236.324 228.044 236.789 228.551Z" fill="#331832"/>
<path d="M231.279 234.915C231.279 234.915 231.184 233.648 232.776 232.033C233.735 231.06 234.95 230.424 235.763 230.071C236.247 229.861 236.808 230.098 236.999 230.592L237.509 231.904L235.136 233.43L231.279 234.915Z" fill="#FFB27D"/>
<path d="M220.049 258.39C220.049 258.39 239.654 247.775 246.682 259.353C251.885 267.925 244.065 275.907 215.059 275.095C215.059 275.095 212.193 273.755 212.891 266.796C213.169 264.041 220.049 258.39 220.049 258.39Z" fill="#366F90"/>
<path d="M220.049 258.39C220.049 258.39 193.938 247.703 188.772 254.383C182.834 262.061 188.527 275.095 216.052 270.435L219.407 266.796L220.049 258.39Z" fill="#366F90"/>
<path d="M215.029 275.143C211.809 272.848 212.828 266.849 212.838 266.789L212.844 266.758L212.874 266.747L232.695 259.541L232.733 259.643L212.942 266.84C212.906 267.063 212.696 268.464 212.821 270.083C212.946 271.7 213.442 273.876 215.093 275.054L215.029 275.143Z" fill="#020202"/>
<path d="M212.726 268.712C212.726 268.712 207.914 268.907 205.653 270.015C203.392 271.123 204.599 273.827 209.189 273.755C213.78 273.683 213.431 272.999 213.431 272.999C213.431 272.999 212.559 270.627 212.726 268.712Z" fill="#331832"/>
<path d="M218.886 258.899C217.292 258.899 215.982 258.495 214.921 257.696C212.916 256.185 212.544 253.777 212.834 252.173L214.752 251.06C214.847 250.534 218.549 252.488 218.543 252.486C218.56 252.491 220.309 252.997 226.376 249.899C230.599 247.743 232.727 244.683 232.883 240.546C233 237.425 231.607 235.674 231.279 234.915C231.236 234.814 233.32 232.726 233.26 232.514L234.823 231.72C234.772 231.541 236.326 230.929 236.304 230.878L237.509 231.904C238.104 233.279 239.37 236.437 239.207 240.788C239.037 245.308 237.17 251.547 229.234 255.597C224.907 257.806 221.511 258.899 218.886 258.899Z" fill="#FFB27D"/>
<path d="M217.599 259.153H200.68C200.325 259.153 200.011 258.927 199.899 258.594L196.383 248.103C196.207 247.574 196.603 247.029 197.164 247.029H213.435C214.176 247.029 214.836 247.501 215.069 248.197L218.38 258.077C218.556 258.607 218.16 259.153 217.599 259.153Z" fill="#331832"/>
<path d="M216.536 259.153H199.617C199.262 259.153 198.948 258.927 198.836 258.594L195.32 248.103C195.144 247.575 195.54 247.029 196.101 247.029H212.372C213.113 247.029 213.772 247.501 214.006 248.198L217.317 258.077C217.495 258.607 217.097 259.153 216.536 259.153Z" fill="#331832"/>
<path d="M204.681 252.749C204.681 252.351 205.141 252.188 205.541 252.188C205.943 252.188 206.599 252.626 206.593 253.184C206.589 253.786 206.117 253.864 205.716 253.864C205.317 253.864 204.681 253.254 204.681 252.749Z" fill="#DAEBE8"/>
<path d="M222.756 257.67H199.607V259.152H223.24C223.516 259.152 223.74 258.929 223.74 258.653C223.742 258.111 223.3 257.67 222.756 257.67Z" fill="#331832"/>
<path d="M215.334 252.334C215.326 252.302 214.496 249.193 213.958 248.227C213.429 247.275 212.775 247.086 212.77 247.084L212.798 246.978C212.827 246.985 213.501 247.18 214.055 248.173C214.599 249.151 215.406 252.177 215.44 252.306L215.334 252.334Z" fill="#366F90"/>
<path d="M217.834 257.725C217.207 257.725 217.051 257.448 217.044 257.435L215.721 253.493L215.825 253.459L217.144 257.393C217.146 257.393 217.286 257.617 217.834 257.617V257.725Z" fill="#366F90"/>
<path d="M234.097 249.805C233.997 249.805 233.906 249.782 233.824 249.735C233.411 249.494 233.423 248.718 233.851 247.968C234.131 247.48 234.531 247.114 234.895 247.018C235.068 246.972 235.227 246.987 235.356 247.063C235.769 247.303 235.758 248.08 235.329 248.83C235.049 249.318 234.649 249.684 234.285 249.78C234.221 249.795 234.158 249.805 234.097 249.805ZM235.083 247.211C235.041 247.211 234.998 247.216 234.95 247.23C234.645 247.311 234.289 247.644 234.04 248.078C233.684 248.699 233.637 249.371 233.934 249.545C234.012 249.591 234.111 249.598 234.228 249.568C234.533 249.487 234.89 249.153 235.138 248.72C235.494 248.099 235.541 247.426 235.244 247.252C235.198 247.224 235.144 247.211 235.083 247.211Z" fill="#EC865C"/>
<path d="M221.316 225.825C220.203 225.792 219.362 225.677 218.721 224.927L216.742 222.602L216.166 221.924L212.779 217.944L214.559 222.6L215.628 225.395L215.965 226.279C216.195 226.879 215.891 227.159 215.677 227.862C215.59 228.146 215.006 229.897 216.528 229.909C218.423 229.922 220.819 227.722 221.346 225.823C221.335 225.821 221.325 225.825 221.316 225.825Z" fill="#FFB27D"/>
<path d="M217.292 221.106C217.292 221.106 221.022 217.526 218.871 214.502C216.719 211.48 216.181 219.353 216.181 219.353L216.782 221.172L217.292 221.106Z" fill="#331832"/>
<path d="M216.723 222.521C216.731 222.547 216.736 222.574 216.742 222.6C217.089 224.17 215.639 225.397 215.639 225.397L215.626 225.391L214.557 222.596C215.01 222.257 215.679 221.846 216.166 221.922C216.42 221.964 216.623 222.136 216.723 222.521Z" fill="#331832"/>
<path d="M214.458 224.37C216.771 223.705 217.989 220.889 217.179 218.082C216.37 215.274 213.839 213.538 211.527 214.203C209.214 214.869 207.996 217.684 208.806 220.492C209.615 223.299 212.146 225.036 214.458 224.37Z" fill="#FFB27D"/>
<path d="M216.371 217.622C216.371 217.622 215.182 218.486 214.187 217.757C213.192 217.028 212.487 216.337 210.259 217.457C208.03 218.578 205.589 218.075 205.139 216.814C204.688 215.551 205.75 214.585 207.15 214.648C208.551 214.71 206.855 213.943 207.829 212.616C208.803 211.289 211.273 212.656 212.499 211.999C213.723 211.342 218.086 210.77 218.871 214.504L216.371 217.622Z" fill="#331832"/>
<path d="M217.303 218.37C217.017 218.811 216.467 218.961 216.077 218.702C215.686 218.444 215.601 217.876 215.887 217.435C216.174 216.994 216.723 216.844 217.114 217.103C217.504 217.361 217.589 217.929 217.303 218.37Z" fill="#FFB27D"/>
<path d="M207.601 216.374C207.518 216.374 207.438 216.365 207.363 216.346C206.86 216.219 206.72 215.956 206.756 215.753C206.798 215.52 207.08 215.297 207.527 215.342C208.193 215.411 208.555 215.187 208.558 215.185L208.646 215.323C208.629 215.333 208.236 215.581 207.51 215.505C207.179 215.471 206.946 215.623 206.917 215.782C206.887 215.948 207.074 216.105 207.404 216.189C208.263 216.408 209.745 215.074 209.76 215.06L209.87 215.181C209.809 215.233 208.538 216.374 207.601 216.374Z" fill="white"/>
<path d="M211.452 213.248C210.548 213.248 209.735 212.857 209.663 212.775L209.783 212.663C209.866 212.733 211.193 213.373 212.326 212.93C212.705 212.783 213.039 212.607 213.361 212.436C214.021 212.088 214.591 211.787 215.241 211.914L215.211 212.075C214.616 211.959 214.07 212.247 213.439 212.582C213.113 212.754 212.775 212.932 212.387 213.084C212.082 213.203 211.761 213.248 211.452 213.248Z" fill="white"/>
<path d="M217.739 214.309C217.489 214.309 217.053 213.917 216.945 213.701C216.858 213.527 216.947 213.447 216.989 213.421C217.315 213.214 217.789 213.856 217.879 213.987L217.891 214.013C217.944 214.212 217.861 214.277 217.806 214.297C217.785 214.305 217.762 214.309 217.739 214.309ZM217.129 213.546C217.108 213.546 217.091 213.549 217.074 213.561C217.066 213.574 217.08 213.661 217.239 213.824C217.461 214.053 217.696 214.165 217.745 214.148C217.743 214.146 217.749 214.125 217.735 214.072C217.571 213.837 217.29 213.546 217.129 213.546Z" fill="white"/>
<path d="M212.158 219.438C212.131 219.434 212.106 219.419 212.093 219.393C212.07 219.349 212.085 219.296 212.127 219.271C212.152 219.258 212.703 218.876 213.293 219.381C213.331 219.413 213.336 219.468 213.306 219.506C213.276 219.544 213.226 219.54 213.181 219.52C212.745 219.298 212.233 219.417 212.212 219.429C212.195 219.438 212.175 219.442 212.158 219.438Z" fill="#080435"/>
<path d="M212.973 220.32C213.007 220.53 212.91 220.72 212.76 220.744C212.609 220.769 212.461 220.618 212.427 220.409C212.393 220.199 212.489 220.01 212.639 219.985C212.791 219.96 212.939 220.11 212.973 220.32Z" fill="#080435"/>
<path d="M209.074 220.555C209.053 220.561 209.03 220.553 209.013 220.534C208.981 220.502 208.974 220.447 208.996 220.411C209.01 220.39 209.265 219.855 209.859 220.131C209.896 220.148 209.919 220.197 209.912 220.243C209.904 220.288 209.866 220.301 209.828 220.296C209.444 220.233 209.123 220.51 209.112 220.527C209.101 220.542 209.089 220.551 209.074 220.555Z" fill="#080435"/>
<path d="M210.181 221.051C210.291 221.233 210.274 221.445 210.145 221.525C210.014 221.606 209.819 221.523 209.709 221.343C209.599 221.161 209.616 220.949 209.745 220.869C209.876 220.79 210.071 220.871 210.181 221.051Z" fill="#080435"/>
<path d="M212.705 223.282C212.394 223.282 212.177 223.229 212.171 223.227C212.139 223.217 212.118 223.185 212.125 223.151C212.135 223.119 212.167 223.098 212.201 223.106C212.262 223.121 213.698 223.471 214.403 222.223C214.42 222.193 214.458 222.184 214.487 222.201C214.517 222.218 214.527 222.255 214.51 222.284C214.038 223.126 213.236 223.282 212.705 223.282Z" fill="#020202"/>
<path d="M214.638 222.504C214.612 222.504 214.587 222.487 214.58 222.46C214.551 222.375 214.468 222.244 214.229 222.106L214.21 222.095C214.182 222.076 214.174 222.038 214.193 222.009C214.212 221.981 214.25 221.973 214.278 221.992C214.508 222.125 214.644 222.267 214.695 222.42C214.707 222.452 214.688 222.488 214.656 222.498C214.652 222.504 214.644 222.504 214.638 222.504Z" fill="#020202"/>
<path d="M207.644 235.622L206.647 238.655L206.904 238.74L207.901 235.707L207.644 235.622Z" fill="#331832"/>
<path d="M209.684 224.052C209.625 224.052 209.567 224.048 209.504 224.041C208.85 223.954 208.17 223.401 207.685 222.562C206.898 221.201 206.862 219.493 207.607 218.756C207.882 218.484 208.234 218.368 208.625 218.419C209.279 218.506 209.959 219.059 210.444 219.898C211.231 221.259 211.267 222.967 210.522 223.704C210.291 223.933 210.003 224.052 209.684 224.052ZM208.449 218.59C208.177 218.59 207.935 218.69 207.738 218.885C207.05 219.567 207.097 221.174 207.846 222.467C208.303 223.257 208.932 223.776 209.531 223.855C209.862 223.899 210.16 223.8 210.395 223.569C211.083 222.888 211.036 221.28 210.287 219.987C209.83 219.197 209.201 218.679 208.602 218.599C208.549 218.593 208.5 218.59 208.449 218.59Z" fill="white"/>
<g opacity="0.3">
<path opacity="0.3" d="M213.965 221.837C214.974 221.604 215.511 220.202 215.164 218.705C214.818 217.209 213.719 216.184 212.71 216.418C211.702 216.651 211.165 218.053 211.512 219.55C211.858 221.046 212.957 222.071 213.965 221.837Z" fill="white"/>
</g>
<g opacity="0.3">
<path opacity="0.3" d="M209.855 223.942C210.761 223.712 211.185 222.307 210.802 220.806C210.419 219.304 209.375 218.273 208.469 218.503C207.563 218.734 207.139 220.138 207.522 221.64C207.904 223.142 208.949 224.172 209.855 223.942Z" fill="white"/>
</g>
<path d="M213.528 221.941C213.407 221.941 213.282 221.926 213.156 221.898C212.47 221.737 211.847 221.159 211.447 220.317C210.759 218.872 210.967 217.096 211.911 216.359C212.292 216.062 212.741 215.964 213.211 216.075C213.897 216.236 214.521 216.814 214.921 217.656C215.609 219.101 215.4 220.877 214.457 221.614C214.178 221.829 213.861 221.941 213.528 221.941ZM212.84 216.213C212.546 216.213 212.268 216.31 212.023 216.503C211.144 217.19 210.958 218.864 211.612 220.237C211.983 221.017 212.576 221.572 213.198 221.718C213.613 221.816 214.009 221.729 214.343 221.468C215.222 220.78 215.408 219.107 214.754 217.734C214.383 216.954 213.789 216.399 213.168 216.253C213.056 216.227 212.948 216.213 212.84 216.213Z" fill="white"/>
<path d="M210.399 220.585C210.363 220.585 210.325 220.574 210.294 220.549C210.219 220.493 210.205 220.385 210.262 220.309C210.281 220.284 210.727 219.716 211.674 219.694C211.769 219.697 211.849 219.766 211.85 219.86C211.852 219.955 211.778 220.034 211.684 220.036C210.897 220.055 210.539 220.512 210.535 220.517C210.501 220.563 210.45 220.585 210.399 220.585Z" fill="white"/>
<path d="M333.555 168.17C332.491 167.123 338.59 163.135 338.59 163.135C338.996 162.849 343.719 168.062 351.482 165.604C354.247 164.729 358.07 159.893 358.345 159.176C358.381 159.081 364.467 161.278 364.467 161.278C363.968 162.578 364.211 167.153 361.235 169.889C355.077 175.55 345.474 176.648 333.555 168.17Z" fill="#FFB27D"/>
<path d="M370.573 244.954C370.573 244.954 370.52 247.053 369.099 247.644C367.677 248.237 363.557 248.771 365.096 250.121C365.979 250.895 370.141 250.395 371.316 250.395C372.491 250.395 373.594 250.906 374.468 250.121C375.429 249.255 374.468 244.954 374.468 244.954C374.468 244.954 373.454 245.482 372.543 245.457C371.231 245.425 370.573 244.954 370.573 244.954Z" fill="#331832"/>
<path d="M358.307 181.607C358.307 181.607 358.023 191.08 361.049 209.253C363.235 222.373 365.812 235.593 367.078 241.93C367.531 244.196 369.44 245.855 371.701 245.946L372.916 245.995C375.361 246.094 377.347 243.994 377.169 241.498L374.098 198.62L373.342 184.506L358.307 181.607Z" fill="#EF8062"/>
<path d="M384.039 244.954C384.039 244.954 383.986 247.053 382.565 247.644C381.143 248.235 377.023 248.771 378.562 250.121C379.445 250.895 383.607 250.395 384.782 250.395C385.958 250.395 387.061 250.906 387.934 250.121C388.895 249.255 387.934 244.954 387.934 244.954C387.934 244.954 386.92 245.482 386.009 245.457C384.695 245.425 384.039 244.954 384.039 244.954Z" fill="#331832"/>
<path d="M371.773 181.607C371.773 181.607 371.489 191.08 374.515 209.253C376.701 222.373 379.278 235.593 380.544 241.93C380.997 244.196 382.906 245.855 385.167 245.946L386.382 245.995C388.827 246.094 390.813 243.994 390.635 241.498L387.565 198.62L386.808 184.506L371.773 181.607Z" fill="#EF8062"/>
<path d="M388.296 191.989C388.268 193.133 381.35 193.585 372.793 193.32C364.237 193.053 357.399 191.872 357.43 190.728C357.458 189.584 364.344 188.914 372.899 189.181C381.454 189.446 388.325 190.845 388.296 191.989Z" fill="#331832"/>
<path d="M386.202 159.632C386.202 159.632 384.69 153.642 373.526 153.581C357.428 153.494 358.919 168.27 357.43 190.728C357.43 190.728 373.286 188.488 388.306 191.709C388.304 191.707 389.697 168.785 386.202 159.632Z" fill="#6DA49A"/>
<path d="M390.322 158.773L383.031 162.802C383.031 162.802 367.067 164.25 362.829 163.554C358.591 162.857 357.43 159.748 357.43 159.748C357.43 159.748 361.944 155.082 369.614 153.836C370.335 153.719 371.083 153.632 371.859 153.581C373.161 153.498 374.463 153.515 375.736 153.659C385.459 154.753 390.322 158.773 390.322 158.773Z" fill="#6DA49A"/>
<path d="M375.059 152.21L374.216 149.493L373.972 148.702L372.529 144.051L372.34 148.677L372.226 151.455L372.19 152.333C372.165 152.93 371.801 153.055 371.358 153.573C371.178 153.783 370.029 155.058 371.333 155.633C372.958 156.351 375.994 155.264 377.148 153.842C377.14 153.84 375.332 153.087 375.059 152.21Z" fill="#FFB27D"/>
<path d="M358.775 191.652C358.775 191.652 368.047 188.927 387.246 192.667L387.394 195.425L359.249 196.419L358.775 191.652Z" fill="#EF8062"/>
<path d="M390.474 158.941C391.092 159.814 390.182 161.541 388.44 162.796C386.698 164.051 384.786 164.36 384.168 163.487C383.55 162.614 384.46 160.888 386.202 159.632C387.944 158.377 389.856 158.066 390.474 158.941Z" fill="#331832"/>
<path d="M392.475 193.96C391.804 186.577 390.264 176.024 386.74 167.666C385.923 165.729 385.584 165.002 384.947 163.945C384.436 163.095 385.353 161.225 386.801 160.333C388.16 159.496 390.275 159.632 390.609 160.047C391.177 160.751 391.786 162.101 392.729 164.245C396.014 171.691 397.981 181.314 398.777 193.716L392.475 193.96Z" fill="#FFB27D"/>
<path d="M368.819 142.305C368.819 142.305 368.525 143.432 368.819 144.843C369.112 146.253 370.549 142.784 370.549 142.784L368.819 142.305Z" fill="#5C305D"/>
<path d="M376.865 146.325C377.224 143.596 375.678 141.143 373.413 140.846C371.147 140.549 369.02 142.52 368.661 145.249C368.302 147.978 369.848 150.431 372.114 150.728C374.379 151.025 376.507 149.054 376.865 146.325Z" fill="#FFB27D"/>
<path d="M376.955 144.898L374.952 144.689C374.512 144.644 374.108 144.407 373.869 144.034C373.46 143.392 372.965 143.063 371.097 143.133C368.731 143.222 367.17 141.813 366.914 140.577C366.652 139.314 367.863 138.46 369.052 139.06C370.24 139.662 369.73 138.185 370.873 138.03C373.007 137.737 373.407 139.382 375.156 139.327C377.448 139.257 381.553 140.997 379.606 145.028L376.955 144.898Z" fill="#331832"/>
<path d="M372.533 145.577C372.512 145.564 372.497 145.541 372.495 145.513C372.491 145.467 372.525 145.426 372.571 145.422C372.598 145.42 373.223 145.308 373.537 145.971C373.556 146.013 373.541 146.062 373.5 146.083C373.458 146.104 373.416 146.081 373.388 146.045C373.096 145.685 372.607 145.587 372.586 145.587C372.565 145.592 372.548 145.587 372.533 145.577Z" fill="#080435"/>
<path d="M372.897 146.653C372.844 146.846 372.689 146.971 372.548 146.933C372.408 146.895 372.338 146.708 372.389 146.515C372.442 146.321 372.598 146.196 372.738 146.234C372.878 146.272 372.948 146.46 372.897 146.653Z" fill="#080435"/>
<path d="M369.431 145.329C369.412 145.326 369.395 145.311 369.385 145.288C369.37 145.248 369.385 145.197 369.418 145.174C369.436 145.161 369.867 144.801 370.272 145.271C370.297 145.301 370.299 145.352 370.274 145.388C370.249 145.424 370.212 145.42 370.181 145.401C369.872 145.197 369.488 145.309 369.471 145.32C369.457 145.329 369.444 145.331 369.431 145.329Z" fill="#080435"/>
<path d="M370.194 146.189C370.219 146.388 370.122 146.562 369.978 146.581C369.834 146.6 369.698 146.452 369.673 146.255C369.649 146.056 369.745 145.882 369.889 145.863C370.033 145.844 370.17 145.99 370.194 146.189Z" fill="#080435"/>
<path d="M379.608 145.03C379.608 145.03 378.225 148.012 376.265 148.23C376.265 148.23 377.851 145.958 374.508 144.574C374.508 144.574 377.577 144.091 379.608 145.03Z" fill="#5C305D"/>
<path d="M376.843 146.675C376.424 146.942 375.89 146.855 375.651 146.48C375.412 146.106 375.56 145.587 375.979 145.32C376.398 145.053 376.932 145.14 377.171 145.515C377.41 145.89 377.262 146.408 376.843 146.675Z" fill="#FFB27D"/>
<path d="M374.508 144.574C374.508 144.574 374.775 147.075 374.265 147.548C373.756 148.022 370.39 148.224 368.818 147.618C368.792 149.226 369.925 150.644 371.512 150.909C372.037 150.998 372.579 150.998 373.119 150.903C374.218 150.712 375.287 150.258 375.74 149.237C375.878 148.927 375.476 147.02 375.476 147.02C375.476 147.02 375.325 145.901 375.977 145.318C375.979 145.32 375.226 144.644 374.508 144.574Z" fill="#5C305D"/>
<path d="M369.648 148.522C369.648 148.522 370.937 148.87 372.347 148.734C372.347 148.734 372.141 150.036 370.715 149.777C369.885 149.626 369.648 148.522 369.648 148.522Z" fill="white"/>
<path d="M369.309 138.865C369.298 138.865 369.287 138.865 369.275 138.865L369.279 138.752C369.832 138.771 369.872 138.333 369.874 138.314L369.986 138.324C369.984 138.331 369.929 138.865 369.309 138.865Z" fill="#331832"/>
<path d="M370.429 142.472C370.424 142.47 369.779 142.281 369.131 141.932C368.267 141.467 367.787 140.929 367.744 140.376C367.713 139.992 367.78 139.732 367.95 139.586C368.221 139.354 368.691 139.463 369.104 139.56C369.165 139.575 369.226 139.588 369.283 139.602L369.271 139.657C369.213 139.643 369.154 139.63 369.091 139.615C368.691 139.522 368.236 139.416 367.986 139.63C367.831 139.764 367.77 140.007 367.799 140.372C367.903 141.667 370.42 142.411 370.444 142.419L370.429 142.472Z" fill="white"/>
<path d="M375.386 139.848C374.472 139.848 373.79 139.611 373.348 139.384C372.744 139.075 372.452 138.729 372.438 138.714L372.482 138.678C372.493 138.691 373.68 140.071 376.134 139.74L376.142 139.797C375.875 139.831 375.623 139.848 375.386 139.848Z" fill="white"/>
<path d="M394.215 177.338C393.971 177.338 393.73 177.222 393.522 177.006C393.292 176.766 393.131 176.425 393.069 176.048C392.936 175.249 393.292 174.522 393.861 174.427C394.147 174.38 394.437 174.494 394.679 174.749C394.909 174.99 395.07 175.331 395.132 175.707C395.195 176.086 395.151 176.459 395.013 176.76C394.865 177.078 394.626 177.281 394.34 177.328C394.3 177.334 394.257 177.338 394.215 177.338ZM393.988 174.693C393.961 174.693 393.935 174.694 393.908 174.698C393.497 174.766 393.237 175.363 393.343 176.001C393.396 176.325 393.531 176.614 393.722 176.815C393.901 177.001 394.103 177.086 394.297 177.054C394.49 177.021 394.655 176.876 394.763 176.643C394.88 176.391 394.915 176.075 394.861 175.751C394.808 175.427 394.674 175.138 394.482 174.937C394.329 174.778 394.156 174.693 393.988 174.693Z" fill="#EC865C"/>
<path d="M392.906 192.652C392.369 193.678 391.761 195.96 391.245 196.997C391.022 197.446 390.37 199.016 390.781 199.317C391.139 199.578 392.238 198.603 392.706 198.071C393.165 201.422 395.288 206.142 394.822 199.063C394.825 199.063 394.829 199.063 394.833 199.063C394.945 199.777 395.565 203.745 396.427 203.245C397.189 202.804 396.859 199.947 396.689 198.771C396.698 198.769 396.709 198.766 396.719 198.764C396.994 199.945 397.727 202.783 398.313 202.119C399.048 201.286 398.76 198.146 398.76 198.146C398.76 198.146 399.215 202.151 400.18 201.299C400.724 200.82 400.233 198.548 399.907 197.137C399.838 196.842 399.778 196.582 399.734 196.387C399.698 196.225 399.651 196.084 399.592 195.961C398.902 193.636 398.082 192.248 398.082 192.248C398.082 192.248 397.399 190.452 395.369 190.724C394.075 190.895 393.139 192.207 392.906 192.652Z" fill="#FFB27D"/>
<path d="M360.301 163.01L360.125 162.961C360.595 161.263 362.17 159.14 362.185 159.119L362.333 159.229C362.316 159.25 360.762 161.344 360.301 163.01Z" fill="#331832"/>
<path d="M374.972 212.962C374.959 212.885 373.716 205.177 372.863 202.429C372.023 199.725 368.401 197.444 368.365 197.421L368.519 197.173C368.528 197.179 369.465 197.766 370.496 198.686C371.885 199.93 372.776 201.159 373.142 202.34C374 205.107 375.247 212.836 375.259 212.913L374.972 212.962Z" fill="#020202"/>
<path d="M339.788 165.066C339.328 164.089 337.969 162.351 337.487 161.382C337.279 160.961 336.477 159.592 336.022 159.729C335.626 159.846 335.732 161.215 335.865 161.863C333.111 160.314 328.159 158.837 333.934 162.876C333.932 162.877 333.93 162.881 333.928 162.885C333.335 162.565 329.353 160.325 329.239 161.249C329.139 162.065 332.127 163.894 333.098 164.428C333.094 164.438 333.09 164.447 333.087 164.457C332.052 163.995 329.082 162.463 329.245 163.273C329.451 164.29 332.395 166.322 332.395 166.322C332.395 166.322 329.156 164.402 329.247 165.6C329.298 166.276 331.267 167.191 332.501 167.744C332.761 167.859 332.986 167.959 333.157 168.037C333.297 168.101 333.43 168.145 333.555 168.171C335.675 168.97 337.173 169.143 337.173 169.143C337.173 169.143 338.896 169.648 339.838 167.986C340.438 166.926 339.989 165.49 339.788 165.066Z" fill="#FFB27D"/>
<path d="M130.088 268.178C130.088 268.178 130.145 270.477 131.703 271.126C133.26 271.776 137.771 272.361 136.086 273.838C135.12 274.686 130.56 274.139 129.273 274.137C127.986 274.137 126.777 274.697 125.82 273.836C124.768 272.889 125.82 268.177 125.82 268.177C125.82 268.177 126.93 268.754 127.929 268.729C129.369 268.693 130.088 268.178 130.088 268.178Z" fill="#331832"/>
<path d="M141.662 205.148C141.662 205.148 141.551 215.746 140.698 234.443C140.029 249.102 140.167 262.687 138.88 269.125C138.42 271.427 121.407 270.253 121.589 267.718L125.617 222.431L126.386 208.092L141.662 205.148Z" fill="#EF8062"/>
<path d="M116.165 181.893C116.165 181.893 118.445 175.482 126.57 175.774C134.695 176.065 141.198 186.741 142.718 209.664C142.718 209.664 129.119 206.816 113.534 213.616C113.534 213.618 112.596 191.237 116.165 181.893Z" fill="#366F90"/>
<path d="M110.458 181.509L116.214 185.19C116.214 185.19 131.011 186.668 134.938 185.957C138.865 185.245 136.848 183.171 136.848 183.171C136.848 183.171 135.741 177.239 128.63 175.969C127.961 175.848 127.288 175.829 126.57 175.777C125.365 175.692 124.157 175.728 122.977 175.857C115.953 176.611 110.458 181.509 110.458 181.509Z" fill="#366F90"/>
<path d="M110.377 181.636C110.178 182.215 111.683 183.298 113.739 184.056C115.795 184.813 117.624 184.959 117.825 184.379C118.024 183.8 116.519 182.717 114.463 181.96C112.407 181.202 110.576 181.056 110.377 181.636Z" fill="#331832"/>
<path d="M112.202 268.178C112.202 268.178 112.259 270.477 113.817 271.126C115.375 271.776 119.886 272.361 118.201 273.838C117.234 274.686 112.674 274.139 111.387 274.137C110.1 274.137 108.891 274.697 107.934 273.836C106.882 272.889 107.934 268.177 107.934 268.177C107.934 268.177 109.044 268.754 110.043 268.729C111.484 268.693 112.202 268.178 112.202 268.178Z" fill="#331832"/>
<path d="M113.534 213.618C113.676 214.79 120.306 214.648 128.424 213.619C136.541 212.593 142.86 210.836 142.718 209.664C142.576 208.492 136.028 208.35 127.91 209.376C119.792 210.404 113.394 212.447 113.534 213.618Z" fill="#331832"/>
<path d="M132.343 212.023L117.234 269.114C116.508 271.443 102.174 271.13 102.623 268.657L114.347 214.661C114.486 214.04 114.944 213.546 115.543 213.373C118.792 212.436 132.662 209.723 132.343 212.023Z" fill="#EF8062"/>
<path d="M123.714 245.196L123.43 245.13L128.043 225.484C128.907 222.857 130.677 220.676 133.033 219.328L133.177 219.58C130.886 220.892 129.161 223.016 128.323 225.561L123.714 245.196Z" fill="#020202"/>
<path d="M120.062 212.349C120.062 212.349 136.263 209.257 141.516 210.715L138.998 214.445L129.633 214.975L120.062 212.349Z" fill="#EF8062"/>
<path d="M129.248 176.266C129.248 176.266 127.404 175.529 127.114 174.503C126.824 173.477 126.14 173.793 125.744 173.53C125.349 173.267 126.454 170.478 126.454 170.478L130.273 169.082L129.879 173.977L129.248 176.266Z" fill="#331832"/>
<path d="M121.25 176.126C122.016 175.952 122.781 175.48 123.107 174.723L124.118 172.377L124.413 171.692L126.149 167.66L125.848 171.837L125.666 174.344L125.615 175.05C125.573 175.635 125.905 175.666 126.483 175.768C126.483 175.768 127.23 178.027 125.545 178.027C123.318 178.027 121.25 176.126 121.25 176.126Z" fill="#FFB27D"/>
<path d="M124.114 172.307C124.114 172.33 124.116 172.352 124.118 172.377C124.218 173.723 125.658 174.352 125.658 174.352L125.668 174.344L125.85 171.837C125.408 171.676 124.781 171.51 124.413 171.691C124.222 171.786 124.101 171.974 124.114 172.307Z" fill="#562759"/>
<path d="M126.341 173.17C128.511 173.17 130.27 171.003 130.27 168.329C130.27 165.655 128.511 163.487 126.341 163.487C124.171 163.487 122.412 165.655 122.412 168.329C122.412 171.003 124.171 173.17 126.341 173.17Z" fill="#FFB27D"/>
<path d="M128.456 171.462C128.456 171.462 127.114 171.493 125.772 171.023C125.772 171.023 125.66 172.345 127.114 172.434C127.959 172.483 128.456 171.462 128.456 171.462Z" fill="white"/>
<path d="M126.722 168.376C126.748 168.369 126.771 168.35 126.78 168.323C126.799 168.278 126.777 168.225 126.731 168.208C126.705 168.196 126.102 167.888 125.575 168.465C125.541 168.501 125.543 168.558 125.579 168.592C125.615 168.626 125.664 168.617 125.706 168.588C126.117 168.312 126.644 168.365 126.667 168.372C126.684 168.38 126.703 168.38 126.722 168.376Z" fill="#080435"/>
<path d="M125.825 169.311C125.818 169.524 125.939 169.702 126.093 169.705C126.248 169.711 126.379 169.542 126.384 169.329C126.392 169.116 126.271 168.938 126.117 168.935C125.962 168.929 125.831 169.098 125.825 169.311Z" fill="#080435"/>
<path d="M128.367 169.478C128.346 169.69 128.454 169.874 128.609 169.889C128.763 169.904 128.905 169.743 128.926 169.531C128.947 169.319 128.839 169.135 128.683 169.12C128.53 169.107 128.388 169.266 128.367 169.478Z" fill="#080435"/>
<path d="M124.434 165.227C127.44 165.945 129.57 168.634 129.667 171.72C129.673 171.9 126.896 173.729 127.065 174.352C127.463 175.815 129.392 177.133 130.078 177.133C131.113 177.133 132.847 173.623 132.288 169.056C131.729 164.489 129.957 161.136 125.759 160.996C121.561 160.855 122.122 163.652 122.122 163.652C122.122 163.652 122.857 164.852 124.434 165.227Z" fill="#331832"/>
<path d="M125.023 165.237C125.023 165.237 124.951 165.282 124.838 165.371C124.394 165.716 123.295 166.7 123.1 168.172C122.855 170.023 124.639 171.177 124.15 172.61C123.661 174.043 122.366 172.436 121.316 172.68C120.266 172.924 119.497 172.436 119.427 170.338C119.357 168.242 119.846 163.349 122.33 163.349L125.023 165.237Z" fill="#331832"/>
<path d="M122.486 169.06C122.931 169.484 123.553 169.527 123.875 169.156C124.197 168.785 124.099 168.141 123.653 167.717C123.208 167.293 122.586 167.25 122.264 167.621C121.942 167.99 122.04 168.634 122.486 169.06Z" fill="#FFB27D"/>
<path d="M129.879 174.007C129.862 174.007 129.849 173.994 129.851 173.977C129.896 171.83 129.481 170.449 129.476 170.436C129.472 170.421 129.479 170.404 129.495 170.4C129.51 170.396 129.527 170.404 129.531 170.419C129.534 170.432 129.953 171.824 129.908 173.979C129.91 173.994 129.896 174.007 129.879 174.007Z" fill="#331832"/>
<path d="M124.495 201.664L124.563 197.463C124.573 196.889 124.131 196.406 123.557 196.367C120.642 196.158 118.6 195.255 117.482 193.674C115.93 191.48 116.093 188.073 116.525 185.71C116.747 184.501 116.347 183.692 114.886 182.918C114.886 182.918 113.627 182.227 112.077 181.963C111.455 181.857 110.839 182.107 110.678 182.717C110.428 183.669 110.102 185.152 109.949 186.898C109.581 191.04 110.381 194.646 112.263 197.321C114.571 200.604 118.295 202.422 123.339 202.73C123.957 202.766 124.485 202.285 124.495 201.664Z" fill="#FFB27D"/>
<g opacity="0.5">
<path opacity="0.5" d="M113.773 196.225C113.661 196.225 113.544 196.206 113.421 196.17C113.097 196.071 112.782 195.85 112.537 195.545C112.018 194.901 111.969 194.076 112.427 193.706C112.657 193.521 112.973 193.477 113.316 193.581C113.64 193.68 113.955 193.901 114.2 194.206C114.719 194.85 114.768 195.676 114.31 196.045C114.162 196.164 113.978 196.225 113.773 196.225ZM112.966 193.807C112.825 193.807 112.7 193.847 112.604 193.924C112.266 194.195 112.335 194.842 112.757 195.365C112.968 195.626 113.233 195.816 113.504 195.897C113.756 195.973 113.98 195.946 114.135 195.821C114.473 195.551 114.404 194.903 113.982 194.38C113.771 194.119 113.506 193.93 113.235 193.848C113.14 193.822 113.049 193.807 112.966 193.807Z" fill="#EC865C"/>
</g>
<path d="M138.418 206.955H127.576C125.495 206.955 123.962 205.01 124.449 202.99L128.721 185.256C129.068 183.811 130.363 182.794 131.848 182.794H142.689C144.771 182.794 146.304 184.739 145.817 186.759L141.545 204.493C141.196 205.938 139.903 206.955 138.418 206.955Z" fill="#764678"/>
<path d="M122.488 196.1C122.488 196.1 123.511 193.004 125.264 192.245C127.018 191.487 129.832 191.843 128.845 192.544C127.857 193.244 126.348 193.791 126.348 193.791C126.348 193.791 129.627 192.775 129.533 193.644C129.438 194.513 126.58 195.371 126.58 195.371C126.58 195.371 130.577 194.471 130.222 195.263C129.868 196.054 126.826 196.717 126.826 196.717C126.826 196.717 130.579 196.028 130.145 196.938C129.711 197.849 127.04 197.487 126.946 198.356C126.851 199.226 126.184 202.645 123.735 202.679L122.488 196.1Z" fill="#FFB27D"/>
<path d="M125.181 194.511L125.054 194.45C125.323 193.884 126.297 193.729 126.339 193.721L126.36 193.862C126.35 193.862 125.418 194.011 125.181 194.511Z" fill="#E9845C"/>
<path d="M125.164 196.234L125.05 196.149C125.583 195.437 126.529 195.302 126.568 195.299L126.587 195.439C126.58 195.441 125.661 195.571 125.164 196.234Z" fill="#E9845C"/>
<path d="M125.511 197.514L125.378 197.465C125.615 196.836 126.767 196.654 126.815 196.647L126.836 196.787C126.826 196.787 125.717 196.961 125.511 197.514Z" fill="#E9845C"/>
<path d="M146.617 190.041C146.617 190.041 147.318 188.403 145.817 187.772C143.904 186.971 140.751 187.804 141.956 188.329C143.025 188.795 144.7 189.09 144.7 189.09C144.7 189.09 140.428 188.393 140.588 189.329C140.747 190.264 144.427 190.813 144.427 190.813C144.427 190.813 140.205 190.527 140.641 191.362C141.077 192.197 144.416 192.716 144.416 192.716C144.416 192.716 140.303 192.214 140.834 193.172C141.363 194.13 143.542 193.96 144.482 194.098C145.371 194.229 145.743 193.699 145.807 192.833C145.807 192.833 146.372 192.01 146.272 191.434C146.234 191.213 146.465 191.035 146.505 190.881C146.584 190.595 146.617 190.041 146.617 190.041Z" fill="#FFB27D"/>
<path d="M134.591 182.183C134.591 182.183 133.937 183.622 134.591 184.004C135.245 184.385 140.483 184.114 140.756 184.004C141.029 183.895 141.084 182.433 140.756 182.183C140.428 181.931 134.737 181.791 134.591 182.183Z" fill="#331832"/>
<path d="M299.329 288.385C299.329 288.385 299.386 290.65 300.931 291.288C302.475 291.926 306.952 292.503 305.28 293.957C304.321 294.792 299.797 294.253 298.52 294.253C297.243 294.253 296.043 294.804 295.095 293.957C294.051 293.026 295.095 288.385 295.095 288.385C295.095 288.385 296.196 288.955 297.188 288.928C298.617 288.892 299.329 288.385 299.329 288.385Z" fill="#331832"/>
<path d="M318.762 204.459C318.762 204.459 321.919 204.726 323.155 203.505C324.391 202.283 325.039 199.797 324.11 200.392C323.182 200.988 322.207 202.073 322.207 202.073C322.207 202.073 324.178 199.655 323.409 199.443C322.64 199.231 320.945 201.35 320.945 201.35C320.945 201.35 323.06 198.288 322.266 198.32C321.474 198.353 319.884 200.691 319.884 200.691C319.884 200.691 321.735 197.764 320.816 197.824C319.897 197.885 319.302 200.254 318.532 200.042C317.763 199.83 315.254 199.729 314.772 201.242L318.762 204.459Z" fill="#FFB27D"/>
<path d="M308.861 231.221C308.861 231.221 310.349 235.933 307.297 254.112C305.095 267.235 303.245 280.326 301.969 286.668C301.513 288.936 299.589 290.593 297.309 290.684L296.085 290.733C293.619 290.831 291.619 288.731 291.799 286.236L294.894 243.344L295.658 229.227L308.861 231.221Z" fill="#6DA49A"/>
<path d="M283.803 233.107C284.188 234.75 290.332 236.475 297.688 234.733C305.044 232.991 310.783 231.137 310.398 229.494C310.013 227.85 303.649 227.036 296.293 228.78C288.937 230.522 283.418 231.463 283.803 233.107Z" fill="#331832"/>
<path d="M281.586 288.385C281.586 288.385 281.643 290.65 283.187 291.288C284.732 291.926 289.208 292.503 287.537 293.957C286.578 294.792 282.054 294.253 280.776 294.253C279.499 294.253 278.299 294.804 277.352 293.957C276.307 293.026 277.352 288.385 277.352 288.385C277.352 288.385 278.455 288.955 279.444 288.928C280.871 288.892 281.586 288.385 281.586 288.385Z" fill="#331832"/>
<path d="M308.861 231.221L295.084 256.365L284.372 287.853C283.652 290.146 281.571 291.715 279.2 291.755L278.167 291.772C275.727 291.814 273.861 289.576 274.306 287.143L284.766 234.161C284.903 233.55 287.251 232.745 287.852 232.597C293.649 231.17 309.177 228.956 308.861 231.221Z" fill="#6DA49A"/>
<path d="M293.788 260.624L293.509 260.55L297.302 246.345C297.44 245.927 297.573 245.482 297.713 245.012C298.422 242.64 299.305 239.686 301.483 238.77L301.594 239.035C299.54 239.898 298.679 242.78 297.988 245.096C297.847 245.567 297.713 246.012 297.576 246.429L293.788 260.624Z" fill="#020202"/>
<path d="M299.796 184.894C299.796 184.894 299.902 181.257 296.655 181.208C293.409 181.159 294.341 183.51 293.81 184.175C293.28 184.839 294.913 186.532 296.481 186.642C298.052 186.752 299.796 184.894 299.796 184.894Z" fill="#331832"/>
<path d="M308.582 210.124C310.392 209.301 312.632 212.93 312.632 212.93C312.665 212.955 309.365 197.825 298.901 199.265C297.783 199.419 292.798 200.405 291.767 200.818C283.985 203.938 284.798 205.762 284.667 213.676C284.542 221.271 283.775 232.489 283.799 232.802C297.976 226.463 310.396 229.496 310.396 229.496C310.502 218.258 308.808 210.687 308.582 210.124Z" fill="#DAEBE8"/>
<path d="M292.975 200.184C294.218 201.615 295.613 202.075 297.43 202.075C300.184 202.075 298.901 199.263 298.901 199.263C298.225 199.248 297.855 198.907 297.798 198.239L297.73 197.417L297.698 197.01L297.59 195.71L297.493 194.541L297.095 189.749L295.825 194.628L295.609 195.458L294.864 198.317C294.625 199.229 293.907 199.936 292.988 200.178C292.984 200.182 292.978 200.184 292.975 200.184Z" fill="#FFB27D"/>
<path d="M295.609 195.459C295.609 195.459 296.422 196.876 297.698 197.012L297.589 195.711C296.793 195.554 295.609 195.459 295.609 195.459Z" fill="#331832"/>
<path d="M290.954 190.825C290.954 190.825 291.386 191.51 291.473 193.184C291.602 195.632 294.498 195.694 294.94 194.835C294.995 194.729 293.59 190.963 293.59 190.963L292.601 190.756L290.954 190.825Z" fill="#331832"/>
<path d="M298.671 195.743C301.044 194.924 302.153 191.907 301.149 189.004C300.145 186.101 297.408 184.412 295.035 185.231C292.663 186.05 291.553 189.067 292.558 191.97C293.562 194.873 296.299 196.562 298.671 195.743Z" fill="#FFB27D"/>
<path d="M297.171 185.864C297.106 186.066 298.706 188.545 293.865 190.9C289.023 193.256 289.991 186.142 293.679 184.745C299.005 182.726 301.014 186.055 300.937 187.522C300.859 188.992 297.171 185.864 297.171 185.864Z" fill="#331832"/>
<path d="M294.129 189.849C294.129 189.849 292.796 192.708 294.267 194.676C294.267 194.676 292.624 193.782 292.432 193.305C292.241 192.83 291.962 190.97 291.962 190.97L294.129 189.849Z" fill="#331832"/>
<path d="M293.384 192.532C294.028 192.83 294.728 192.646 294.944 192.123C295.16 191.601 294.813 190.936 294.167 190.639C293.522 190.342 292.823 190.525 292.607 191.048C292.391 191.57 292.739 192.237 293.384 192.532Z" fill="#FFB27D"/>
<path d="M297.277 190.391C297.303 190.374 297.32 190.346 297.322 190.311C297.326 190.255 297.283 190.207 297.226 190.204C297.192 190.202 296.418 190.088 296.053 190.912C296.03 190.963 296.051 191.023 296.104 191.048C296.155 191.073 296.206 191.042 296.24 190.997C296.587 190.546 297.186 190.406 297.214 190.408C297.237 190.41 297.258 190.402 297.277 190.391Z" fill="#080435"/>
<path d="M296.866 191.718C296.938 191.953 297.135 192.101 297.305 192.048C297.476 191.996 297.557 191.764 297.485 191.531C297.413 191.296 297.216 191.148 297.046 191.201C296.875 191.252 296.794 191.485 296.866 191.718Z" fill="#080435"/>
<path d="M300.944 189.717C300.975 189.711 301.003 189.69 301.016 189.66C301.041 189.609 301.02 189.548 300.967 189.524C300.937 189.509 300.266 189.113 299.612 189.736C299.57 189.776 299.566 189.84 299.606 189.882C299.646 189.923 299.703 189.916 299.752 189.887C300.247 189.601 300.851 189.698 300.878 189.709C300.901 189.719 300.923 189.721 300.944 189.717Z" fill="#080435"/>
<path d="M300.055 190.79C300.031 191.035 300.156 191.245 300.334 191.262C300.512 191.279 300.675 191.095 300.7 190.851C300.724 190.607 300.599 190.397 300.421 190.38C300.243 190.362 300.078 190.548 300.055 190.79Z" fill="#080435"/>
<g opacity="0.3">
<path opacity="0.3" d="M294.781 190.984C294.813 192.366 295.649 193.646 296.65 193.845C297.648 194.043 298.433 193.083 298.401 191.701C298.369 190.319 297.533 189.039 296.532 188.84C295.531 188.641 294.749 189.601 294.781 190.984Z" fill="white"/>
</g>
<g opacity="0.3">
<path opacity="0.3" d="M299.341 190.309C299.525 191.654 300.4 192.86 301.295 193.004C302.189 193.148 302.766 192.176 302.58 190.832C302.396 189.488 301.52 188.282 300.626 188.138C299.731 187.994 299.155 188.965 299.341 190.309Z" fill="white"/>
</g>
<path d="M294.849 191.96C294.872 192.029 294.896 192.095 294.925 192.159C295.179 192.792 295.59 193.318 296.077 193.617C296.27 193.737 296.475 193.82 296.687 193.861C296.892 193.901 297.089 193.899 297.279 193.856C297.33 193.844 297.381 193.829 297.43 193.812C297.595 193.754 297.754 193.665 297.898 193.545C298.255 193.248 298.499 192.794 298.603 192.246C298.649 192.021 298.668 191.781 298.666 191.531C298.662 191.269 298.63 191.014 298.571 190.766C298.549 190.66 298.52 190.557 298.488 190.453C298.202 189.548 297.599 188.808 296.892 188.547C296.805 188.513 296.714 188.488 296.623 188.471C296.179 188.386 295.761 188.496 295.412 188.787C294.97 189.156 294.701 189.764 294.652 190.486C294.644 190.59 294.642 190.694 294.644 190.802C294.644 190.864 294.648 190.929 294.654 190.991C294.665 191.175 294.692 191.356 294.73 191.533C294.762 191.68 294.802 191.822 294.849 191.96ZM298.152 192.977C298.052 193.15 297.929 193.299 297.788 193.415C297.663 193.519 297.531 193.596 297.387 193.648C297.178 193.719 296.953 193.737 296.721 193.693C296.502 193.651 296.289 193.56 296.094 193.424C295.613 193.102 295.22 192.542 295.002 191.877V191.875C294.97 191.775 294.94 191.671 294.915 191.565C294.891 191.464 294.872 191.364 294.857 191.262C294.834 191.108 294.821 190.955 294.817 190.796C294.815 190.652 294.821 190.51 294.838 190.374C294.843 190.296 294.855 190.22 294.872 190.147C294.872 190.143 294.874 190.137 294.875 190.133C294.877 190.124 294.879 190.118 294.879 190.109C294.908 189.963 294.946 189.827 294.993 189.698C295.112 189.374 295.294 189.103 295.522 188.912C295.689 188.772 295.872 188.679 296.069 188.638C296.234 188.6 296.409 188.598 296.589 188.634C296.657 188.647 296.723 188.664 296.79 188.689C297.474 188.918 298.058 189.637 298.329 190.52C298.361 190.622 298.389 190.728 298.412 190.836C298.459 191.061 298.488 191.294 298.494 191.531C298.497 191.767 298.478 191.998 298.435 192.212C298.38 192.493 298.285 192.748 298.158 192.968C298.154 192.972 298.152 192.973 298.152 192.977Z" fill="#68A1BF"/>
<path d="M299.521 191.071C299.546 191.142 299.57 191.211 299.599 191.279C299.625 191.347 299.657 191.413 299.688 191.479C299.707 191.523 299.729 191.57 299.75 191.61C299.752 191.616 299.756 191.622 299.758 191.627C299.777 191.663 299.794 191.699 299.815 191.733C299.817 191.735 299.818 191.737 299.818 191.739C299.659 191.419 299.538 191.053 299.47 190.671C299.458 190.667 299.436 190.662 299.405 190.656C299.422 190.728 299.439 190.798 299.458 190.868C299.477 190.936 299.498 191.004 299.521 191.071ZM299.521 191.071C299.546 191.142 299.57 191.211 299.599 191.279C299.625 191.347 299.657 191.413 299.688 191.479C299.707 191.523 299.729 191.57 299.75 191.61C299.752 191.616 299.756 191.622 299.758 191.627C299.777 191.663 299.794 191.699 299.815 191.733C299.817 191.735 299.818 191.737 299.818 191.739C299.659 191.419 299.538 191.053 299.47 190.671C299.458 190.667 299.436 190.662 299.405 190.656C299.422 190.728 299.439 190.798 299.458 190.868C299.477 190.936 299.498 191.004 299.521 191.071ZM299.521 191.071C299.546 191.142 299.57 191.211 299.599 191.279C299.625 191.347 299.657 191.413 299.688 191.479C299.707 191.523 299.729 191.57 299.75 191.61C299.752 191.616 299.756 191.622 299.758 191.627C299.777 191.663 299.794 191.699 299.815 191.733C299.817 191.735 299.818 191.737 299.818 191.739C299.659 191.419 299.538 191.053 299.47 190.671C299.458 190.667 299.436 190.662 299.405 190.656C299.422 190.728 299.439 190.798 299.458 190.868C299.477 190.936 299.498 191.004 299.521 191.071ZM299.521 191.071C299.546 191.142 299.57 191.211 299.599 191.279C299.625 191.347 299.657 191.413 299.688 191.479C299.707 191.523 299.729 191.57 299.75 191.61C299.752 191.616 299.756 191.622 299.758 191.627C299.777 191.663 299.794 191.699 299.815 191.733C299.817 191.735 299.818 191.737 299.818 191.739C299.659 191.419 299.538 191.053 299.47 190.671C299.458 190.667 299.436 190.662 299.405 190.656C299.422 190.728 299.439 190.798 299.458 190.868C299.477 190.936 299.498 191.004 299.521 191.071ZM299.521 191.071C299.546 191.142 299.57 191.211 299.599 191.279C299.625 191.347 299.657 191.413 299.688 191.479C299.707 191.523 299.729 191.57 299.75 191.61C299.752 191.616 299.756 191.622 299.758 191.627C299.777 191.663 299.794 191.699 299.815 191.733C299.817 191.735 299.818 191.737 299.818 191.739C299.659 191.419 299.538 191.053 299.47 190.671C299.458 190.667 299.436 190.662 299.405 190.656C299.422 190.728 299.439 190.798 299.458 190.868C299.477 190.936 299.498 191.004 299.521 191.071ZM299.521 191.071C299.546 191.142 299.57 191.211 299.599 191.279C299.625 191.347 299.657 191.413 299.688 191.479C299.707 191.523 299.729 191.57 299.75 191.61C299.752 191.616 299.756 191.622 299.758 191.627C299.777 191.663 299.794 191.699 299.815 191.733C299.817 191.735 299.818 191.737 299.818 191.739C299.659 191.419 299.538 191.053 299.47 190.671C299.458 190.667 299.436 190.662 299.405 190.656C299.422 190.728 299.439 190.798 299.458 190.868C299.477 190.936 299.498 191.004 299.521 191.071ZM299.521 191.071C299.546 191.142 299.57 191.211 299.599 191.279C299.625 191.347 299.657 191.413 299.688 191.479C299.707 191.523 299.729 191.57 299.75 191.61C299.752 191.616 299.756 191.622 299.758 191.627C299.777 191.663 299.794 191.699 299.815 191.733C299.817 191.735 299.818 191.737 299.818 191.739C299.659 191.419 299.538 191.053 299.47 190.671C299.458 190.667 299.436 190.662 299.405 190.656C299.422 190.728 299.439 190.798 299.458 190.868C299.477 190.936 299.498 191.004 299.521 191.071ZM299.521 191.071C299.546 191.142 299.57 191.211 299.599 191.279C299.625 191.347 299.657 191.413 299.688 191.479C299.707 191.523 299.729 191.57 299.75 191.61C299.752 191.616 299.756 191.622 299.758 191.627C299.777 191.663 299.794 191.699 299.815 191.733C299.817 191.735 299.818 191.737 299.818 191.739C299.659 191.419 299.538 191.053 299.47 190.671C299.458 190.667 299.436 190.662 299.405 190.656C299.422 190.728 299.439 190.798 299.458 190.868C299.477 190.936 299.498 191.004 299.521 191.071ZM299.458 191.311C299.618 191.781 299.853 192.197 300.133 192.515H300.135V192.517C300.417 192.839 300.747 193.057 301.096 193.127C301.119 193.132 301.139 193.134 301.16 193.138C301.162 193.14 301.164 193.138 301.168 193.14C301.344 193.167 301.518 193.149 301.68 193.095C301.818 193.047 301.949 192.973 302.066 192.871C302.536 192.47 302.79 191.699 302.749 190.807C302.68 189.355 301.844 188.02 300.887 187.827C300.868 187.823 300.846 187.82 300.827 187.818H300.825C300.743 187.804 300.666 187.801 300.586 187.804C300.476 187.812 300.37 187.835 300.268 187.873C300.143 187.92 300.025 187.992 299.913 188.085C299.445 188.484 299.189 189.257 299.233 190.148C299.237 190.207 299.238 190.264 299.244 190.321C299.254 190.427 299.267 190.535 299.288 190.641C299.328 190.872 299.386 191.097 299.458 191.311ZM299.818 191.739C299.659 191.419 299.538 191.053 299.47 190.671C299.451 190.559 299.434 190.448 299.422 190.334C299.417 190.27 299.413 190.203 299.409 190.137C299.388 189.717 299.438 189.329 299.544 188.997C299.646 188.679 299.805 188.416 300.008 188.234C300.016 188.225 300.023 188.219 300.031 188.211C300.133 188.124 300.245 188.06 300.362 188.02C300.465 187.986 300.575 187.969 300.686 187.973C300.743 187.975 300.798 187.98 300.855 187.992C301.74 188.17 302.515 189.435 302.58 190.813C302.58 190.819 302.58 190.824 302.58 190.832C302.58 190.834 302.58 190.834 302.582 190.836C302.582 190.838 302.582 190.841 302.582 190.843C302.582 190.845 302.582 190.847 302.582 190.849C302.612 191.675 302.379 192.377 301.956 192.739C301.744 192.922 301.492 193.002 301.225 192.972C301.193 192.97 301.162 192.964 301.132 192.958C301.105 192.953 301.079 192.947 301.052 192.937C301.047 192.937 301.037 192.934 301.03 192.932C301.03 192.932 301.028 192.932 301.028 192.93C301.026 192.93 301.026 192.928 301.022 192.928C300.813 192.867 300.611 192.746 300.425 192.572C300.201 192.369 300.002 192.097 299.839 191.781C299.834 191.767 299.826 191.752 299.818 191.739ZM299.521 191.071C299.546 191.142 299.57 191.211 299.599 191.279C299.625 191.347 299.657 191.413 299.688 191.479C299.707 191.523 299.729 191.57 299.75 191.61C299.752 191.616 299.756 191.622 299.758 191.627C299.777 191.663 299.794 191.699 299.815 191.733C299.817 191.735 299.818 191.737 299.818 191.739C299.659 191.419 299.538 191.053 299.47 190.671C299.458 190.667 299.436 190.662 299.405 190.656C299.422 190.728 299.439 190.798 299.458 190.868C299.477 190.936 299.498 191.004 299.521 191.071ZM299.521 191.071C299.546 191.142 299.57 191.211 299.599 191.279C299.625 191.347 299.657 191.413 299.688 191.479C299.707 191.523 299.729 191.57 299.75 191.61C299.752 191.616 299.756 191.622 299.758 191.627C299.777 191.663 299.794 191.699 299.815 191.733C299.817 191.735 299.818 191.737 299.818 191.739C299.659 191.419 299.538 191.053 299.47 190.671C299.458 190.667 299.436 190.662 299.405 190.656C299.422 190.728 299.439 190.798 299.458 190.868C299.477 190.936 299.498 191.004 299.521 191.071ZM299.521 191.071C299.546 191.142 299.57 191.211 299.599 191.279C299.625 191.347 299.657 191.413 299.688 191.479C299.707 191.523 299.729 191.57 299.75 191.61C299.752 191.616 299.756 191.622 299.758 191.627C299.777 191.663 299.794 191.699 299.815 191.733C299.817 191.735 299.818 191.737 299.818 191.739C299.659 191.419 299.538 191.053 299.47 190.671C299.458 190.667 299.436 190.662 299.405 190.656C299.422 190.728 299.439 190.798 299.458 190.868C299.477 190.936 299.498 191.004 299.521 191.071ZM299.521 191.071C299.546 191.142 299.57 191.211 299.599 191.279C299.625 191.347 299.657 191.413 299.688 191.479C299.707 191.523 299.729 191.57 299.75 191.61C299.752 191.616 299.756 191.622 299.758 191.627C299.777 191.663 299.794 191.699 299.815 191.733C299.817 191.735 299.818 191.737 299.818 191.739C299.659 191.419 299.538 191.053 299.47 190.671C299.458 190.667 299.436 190.662 299.405 190.656C299.422 190.728 299.439 190.798 299.458 190.868C299.477 190.936 299.498 191.004 299.521 191.071ZM299.521 191.071C299.546 191.142 299.57 191.211 299.599 191.279C299.625 191.347 299.657 191.413 299.688 191.479C299.707 191.523 299.729 191.57 299.75 191.61C299.752 191.616 299.756 191.622 299.758 191.627C299.777 191.663 299.794 191.699 299.815 191.733C299.817 191.735 299.818 191.737 299.818 191.739C299.659 191.419 299.538 191.053 299.47 190.671C299.458 190.667 299.436 190.662 299.405 190.656C299.422 190.728 299.439 190.798 299.458 190.868C299.477 190.936 299.498 191.004 299.521 191.071ZM299.521 191.071C299.546 191.142 299.57 191.211 299.599 191.279C299.625 191.347 299.657 191.413 299.688 191.479C299.707 191.523 299.729 191.57 299.75 191.61C299.752 191.616 299.756 191.622 299.758 191.627C299.777 191.663 299.794 191.699 299.815 191.733C299.817 191.735 299.818 191.737 299.818 191.739C299.659 191.419 299.538 191.053 299.47 190.671C299.458 190.667 299.436 190.662 299.405 190.656C299.422 190.728 299.439 190.798 299.458 190.868C299.477 190.936 299.498 191.004 299.521 191.071ZM299.521 191.071C299.546 191.142 299.57 191.211 299.599 191.279C299.625 191.347 299.657 191.413 299.688 191.479C299.707 191.523 299.729 191.57 299.75 191.61C299.752 191.616 299.756 191.622 299.758 191.627C299.777 191.663 299.794 191.699 299.815 191.733C299.817 191.735 299.818 191.737 299.818 191.739C299.659 191.419 299.538 191.053 299.47 190.671C299.458 190.667 299.436 190.662 299.405 190.656C299.422 190.728 299.439 190.798 299.458 190.868C299.477 190.936 299.498 191.004 299.521 191.071Z" fill="#68A1BF"/>
<path d="M299.585 190.675C299.631 190.66 299.669 190.626 299.686 190.577C299.716 190.493 299.671 190.402 299.587 190.374C299.561 190.364 298.924 190.152 298.166 190.616C298.09 190.662 298.067 190.76 298.113 190.836C298.158 190.912 298.259 190.934 298.333 190.887C298.962 190.503 299.475 190.673 299.479 190.675C299.515 190.686 299.551 190.684 299.585 190.675Z" fill="#331832"/>
<path d="M292.817 186.104C292.817 186.104 291.246 182.819 288.327 184.239C285.409 185.659 286.614 187.157 287.148 188.16C287.546 188.908 289.21 189.76 290.66 189.151C292.11 188.543 292.817 186.104 292.817 186.104Z" fill="#331832"/>
<path d="M293.297 197.387C293.278 197.391 293.259 197.389 293.24 197.379C293.189 197.357 293.166 197.3 293.189 197.249C293.208 197.205 293.682 196.162 294.809 195.46C294.857 195.431 294.917 195.444 294.946 195.49C294.974 195.535 294.961 195.598 294.913 195.626C293.837 196.296 293.374 197.317 293.371 197.328C293.357 197.361 293.329 197.381 293.297 197.387Z" fill="#331832"/>
<path d="M292.974 200.184L291.113 200.543C291.113 200.543 290.784 201.503 291.695 201.806C292.607 202.111 292.789 202.111 293.081 202.81C293.372 203.51 294.508 203.541 294.908 203.296C295.306 203.052 296.007 203.965 296.653 203.965C297.3 203.965 297.682 202.827 297.43 202.073C297.43 202.075 295.001 201.662 292.974 200.184Z" fill="white"/>
<path d="M298.901 199.265C298.901 199.265 300.046 202.009 297.43 202.077C297.43 202.077 298.804 203.442 299.765 202.893C300.726 202.346 299.807 201.859 300.215 201.494C300.624 201.128 301.073 200.865 300.664 200.439C300.254 200.013 300.512 199.169 300.512 199.169C300.512 199.169 299.864 198.548 298.901 199.265Z" fill="white"/>
<path d="M299.815 206.082C299.815 205.856 299.999 205.675 300.226 205.675C300.453 205.675 300.637 205.856 300.637 206.082C300.637 206.307 300.453 206.489 300.226 206.489C299.999 206.491 299.815 206.307 299.815 206.082Z" fill="#6DA49A"/>
<path d="M301.541 219.171C301.541 218.945 301.725 218.764 301.953 218.764C302.18 218.764 302.364 218.945 302.364 219.171C302.364 219.396 302.18 219.578 301.953 219.578C301.725 219.578 301.541 219.396 301.541 219.171Z" fill="#6DA49A"/>
<path d="M301.541 213.241C301.541 213.016 301.725 212.834 301.953 212.834C302.18 212.834 302.364 213.016 302.364 213.241C302.364 213.466 302.18 213.648 301.953 213.648C301.725 213.648 301.541 213.464 301.541 213.241Z" fill="#6DA49A"/>
<path d="M280.919 242.736L280.837 238.728C280.816 238.181 280.397 237.711 279.842 237.62L276.639 237.088C276.135 237.005 275.634 237.245 275.392 237.69L273.353 241.845L272.471 241.413L274.524 237.234C274.964 236.416 275.881 235.969 276.8 236.123L280.003 236.655C281.015 236.823 281.779 237.683 281.819 238.702L281.9 242.719L280.919 242.736Z" fill="#CD614C"/>
<path d="M283.422 255.322L268.376 254.256C267.314 254.18 266.514 253.271 266.583 252.221L267.269 241.568C267.341 240.453 268.355 239.633 269.471 239.79L287.503 242.322C288.742 242.496 289.493 243.774 289.03 244.929L285.359 254.116C285.048 254.894 284.264 255.383 283.422 255.322Z" fill="#EF8062"/>
<path d="M277.666 248.472L277.634 248.458L267.085 243.783L267.176 243.575L277.695 248.237L288.42 246.292L288.46 246.516L277.666 248.472Z" fill="#CD614C"/>
<path d="M277.697 249.335C277.356 249.278 277.122 248.954 277.181 248.617L277.282 248.023C277.338 247.684 277.664 247.455 278.006 247.512C278.347 247.568 278.58 247.892 278.521 248.229L278.421 248.824C278.364 249.161 278.038 249.392 277.697 249.335Z" fill="#CD614C"/>
<path d="M282.725 236.435C282.488 235.979 282.226 235.223 281.965 234.502C281.755 233.921 281.542 233.36 281.345 232.997C281.154 232.645 277.143 232.599 277.143 232.599C277.143 232.599 276.488 233.676 275.945 235.492C275.9 235.589 275.86 235.699 275.834 235.826C275.642 236.706 275.206 237.922 275.746 238.387C276.334 238.897 276.7 238.02 276.85 237.539C276.749 237.98 276.63 238.827 277.064 239.306C277.52 239.809 278.042 238.431 278.269 237.73C278.271 237.73 278.273 237.732 278.275 237.732C278.114 238.363 277.89 239.582 278.464 239.913C279.145 240.305 279.67 238.431 279.808 238.001C279.825 238.003 279.842 238.003 279.857 238.005C280.255 240.673 281.32 239.325 281.561 237.27C281.952 237.698 282.835 238.463 283.121 238.266C283.451 238.033 282.911 236.791 282.725 236.435Z" fill="#FFB27D"/>
<path d="M291.297 200.865C291.297 200.865 280.634 203.934 277.934 217.927C276.669 224.482 276.002 229.212 276.393 231.832C276.505 232.58 277.092 233.169 277.843 233.301L280.396 233.75C281.29 233.907 282.152 233.341 282.351 232.463C283.396 227.89 286.724 214.657 291.055 210.677L291.297 200.865Z" fill="#DAEBE8"/>
<path d="M314.361 226.165C313.461 226.055 312.593 225.752 311.787 225.26C309.174 223.668 307.42 220.303 306.103 214.35C305.497 211.609 303.725 208.306 303.708 208.272L309.598 205.141C309.689 205.307 311.825 209.276 312.632 212.93C313.089 214.998 313.334 201.946 314.459 200.712C315.149 199.955 319.886 204.735 319.886 204.735C320.333 206.411 320.704 217.306 320.634 219.258C320.585 220.636 320.418 221.744 320.126 222.645C319.357 225.023 317.746 225.762 316.855 225.991C316.01 226.209 315.172 226.266 314.361 226.165Z" fill="#DAEBE8"/>
<path d="M311.899 219.546C311.895 219.51 311.448 215.872 312.809 213.021L312.919 213.074C311.573 215.891 312.015 219.495 312.018 219.531L311.899 219.546Z" fill="#331832"/>
<path d="M284.192 225.605L284.074 225.575C285.477 220.303 288.202 214.625 288.229 214.568L288.339 214.621C288.312 214.678 285.59 220.345 284.192 225.605Z" fill="#331832"/>
<path d="M310.371 224.077L310.248 224.075C310.417 216.783 307.036 206.612 307.002 206.511L307.117 206.472C307.153 206.572 310.54 216.762 310.371 224.077Z" fill="#331832"/>
<path d="M298.401 194.187C298.02 194.187 297.737 194.123 297.73 194.123C297.701 194.117 297.684 194.087 297.69 194.058C297.698 194.03 297.724 194.011 297.754 194.019C297.773 194.022 299.547 194.418 300.124 193.174C300.135 193.148 300.167 193.136 300.194 193.148C300.22 193.159 300.232 193.191 300.22 193.218C299.845 194.03 299.002 194.187 298.401 194.187Z" fill="#020202"/>
<path d="M296.65 102.854C296.39 102.854 296.128 102.809 295.871 102.712C294.73 102.282 294.153 101.01 294.582 99.8702L312.578 52.1465C313.008 51.0067 314.281 50.4311 315.422 50.859C316.563 51.2888 317.14 52.5612 316.711 53.701L298.715 101.425C298.384 102.309 297.544 102.854 296.65 102.854Z" fill="#EF8062"/>
<path d="M314.344 118.236C313.641 118.236 312.949 117.901 312.521 117.278C311.831 116.273 312.087 114.9 313.091 114.211L379.603 68.6003C380.609 67.9111 381.983 68.1667 382.673 69.1703C383.363 70.1757 383.107 71.5484 382.103 72.2376L315.591 117.848C315.208 118.111 314.774 118.236 314.344 118.236Z" fill="#EF8062"/>
<path d="M350.338 142.141C350.332 142.141 350.326 142.141 350.32 142.141L319.02 141.912C317.799 141.902 316.819 140.908 316.827 139.689C316.836 138.471 317.828 137.496 319.052 137.498L350.353 137.727C351.573 137.737 352.553 138.731 352.546 139.95C352.536 141.164 351.549 142.141 350.338 142.141Z" fill="#EF8062"/>
</svg>
